solid OpenSCAD_Model
  facet normal 1 -0 0
    outer loop
      vertex 81.75 -1.75 1.5
      vertex 81.75 11.75 -2
      vertex 81.75 11.75 1.5
    endloop
  endfacet
  facet normal 1 0 0
    outer loop
      vertex 81.75 11.75 -2
      vertex 81.75 -1.75 1.5
      vertex 81.75 -1.75 -2
    endloop
  endfacet
  facet normal 0 0 1
    outer loop
      vertex 39.5 5.5 1.5
      vertex 30.5 4.5 1.5
      vertex 39.5 4.5 1.5
    endloop
  endfacet
  facet normal 0 0 1
    outer loop
      vertex 30.5 4.5 1.5
      vertex 29.5 4.5 1.5
      vertex 30.5 0.5 1.5
    endloop
  endfacet
  facet normal 0 0 1
    outer loop
      vertex 39.5 5.5 1.5
      vertex 29.5 4.5 1.5
      vertex 30.5 4.5 1.5
    endloop
  endfacet
  facet normal -0 0 1
    outer loop
      vertex 10.5 5.5 1.5
      vertex 29.5 4.5 1.5
      vertex 39.5 5.5 1.5
    endloop
  endfacet
  facet normal 0 0 1
    outer loop
      vertex 9.5 5.5 1.5
      vertex 10.5 5.5 1.5
      vertex 9.5 9.5 1.5
    endloop
  endfacet
  facet normal 0 0 1
    outer loop
      vertex 0.5 4.5 1.5
      vertex 10.5 5.5 1.5
      vertex 9.5 5.5 1.5
    endloop
  endfacet
  facet normal 0 0 1
    outer loop
      vertex 0.5 4.5 1.5
      vertex 9.5 5.5 1.5
      vertex 0.5 5.5 1.5
    endloop
  endfacet
  facet normal 0 0 1
    outer loop
      vertex 10.5 5.5 1.5
      vertex 0.5 4.5 1.5
      vertex 29.5 4.5 1.5
    endloop
  endfacet
  facet normal -0 0 1
    outer loop
      vertex 40.5 5.5 1.5
      vertex 49.5 4.5 1.5
      vertex 49.5 5.5 1.5
    endloop
  endfacet
  facet normal 0 0 1
    outer loop
      vertex 49.5 4.5 1.5
      vertex 40.5 5.5 1.5
      vertex 40.5 4.5 1.5
    endloop
  endfacet
  facet normal 0 0 1
    outer loop
      vertex 79.5 5.5 1.5
      vertex 60.5 4.5 1.5
      vertex 79.5 4.5 1.5
    endloop
  endfacet
  facet normal 0 0 1
    outer loop
      vertex 60.5 4.5 1.5
      vertex 59.5 4.5 1.5
      vertex 60.5 0.5 1.5
    endloop
  endfacet
  facet normal -0 0 1
    outer loop
      vertex 50.5 5.5 1.5
      vertex 60.5 4.5 1.5
      vertex 79.5 5.5 1.5
    endloop
  endfacet
  facet normal 0 0 1
    outer loop
      vertex 60.5 4.5 1.5
      vertex 50.5 5.5 1.5
      vertex 59.5 4.5 1.5
    endloop
  endfacet
  facet normal 0 0 1
    outer loop
      vertex 59.5 4.5 1.5
      vertex 50.5 5.5 1.5
      vertex 50.5 4.5 1.5
    endloop
  endfacet
  facet normal 0 0 1
    outer loop
      vertex 79.5 5.5 1.5
      vertex 81.75 11.75 1.5
      vertex 79.5 9.5 1.5
    endloop
  endfacet
  facet normal 0 0 1
    outer loop
      vertex 81.75 11.75 1.5
      vertex 50.5 9.5 1.5
      vertex 79.5 9.5 1.5
    endloop
  endfacet
  facet normal 0 0 1
    outer loop
      vertex 49.5 5.5 1.5
      vertex 50.5 5.5 1.5
      vertex 50.5 9.5 1.5
    endloop
  endfacet
  facet normal 0 0 1
    outer loop
      vertex 50.5 5.5 1.5
      vertex 49.5 5.5 1.5
      vertex 50.5 4.5 1.5
    endloop
  endfacet
  facet normal 0 0 1
    outer loop
      vertex 49.5 5.5 1.5
      vertex 50.5 9.5 1.5
      vertex 49.5 9.5 1.5
    endloop
  endfacet
  facet normal 0 0 1
    outer loop
      vertex 81.75 11.75 1.5
      vertex 49.5 9.5 1.5
      vertex 50.5 9.5 1.5
    endloop
  endfacet
  facet normal 0 0 1
    outer loop
      vertex 81.75 11.75 1.5
      vertex 40.5 9.5 1.5
      vertex 49.5 9.5 1.5
    endloop
  endfacet
  facet normal 0 0 1
    outer loop
      vertex 39.5 5.5 1.5
      vertex 40.5 5.5 1.5
      vertex 40.5 9.5 1.5
    endloop
  endfacet
  facet normal 0 0 1
    outer loop
      vertex 40.5 5.5 1.5
      vertex 39.5 5.5 1.5
      vertex 40.5 4.5 1.5
    endloop
  endfacet
  facet normal 0 0 1
    outer loop
      vertex 39.5 5.5 1.5
      vertex 40.5 9.5 1.5
      vertex 39.5 9.5 1.5
    endloop
  endfacet
  facet normal 0 0 1
    outer loop
      vertex 81.75 11.75 1.5
      vertex 39.5 9.5 1.5
      vertex 40.5 9.5 1.5
    endloop
  endfacet
  facet normal -0 0 1
    outer loop
      vertex -1.75 11.75 1.5
      vertex 39.5 9.5 1.5
      vertex 81.75 11.75 1.5
    endloop
  endfacet
  facet normal 0 0 1
    outer loop
      vertex 10.5 9.5 1.5
      vertex 9.5 9.5 1.5
      vertex 10.5 5.5 1.5
    endloop
  endfacet
  facet normal 0 0 1
    outer loop
      vertex 39.5 9.5 1.5
      vertex -1.75 11.75 1.5
      vertex 10.5 9.5 1.5
    endloop
  endfacet
  facet normal 0 0 1
    outer loop
      vertex 10.5 9.5 1.5
      vertex -1.75 11.75 1.5
      vertex 9.5 9.5 1.5
    endloop
  endfacet
  facet normal 0 0 1
    outer loop
      vertex -1.75 11.75 1.5
      vertex 0.5 5.5 1.5
      vertex 0.5 9.5 1.5
    endloop
  endfacet
  facet normal 0 0 1
    outer loop
      vertex 0.5 5.5 1.5
      vertex -1.75 11.75 1.5
      vertex 0.5 4.5 1.5
    endloop
  endfacet
  facet normal 0 0 1
    outer loop
      vertex -1.75 -1.75 1.5
      vertex 0.5 4.5 1.5
      vertex -1.75 11.75 1.5
    endloop
  endfacet
  facet normal 0 0 1
    outer loop
      vertex 9.5 9.5 1.5
      vertex -1.75 11.75 1.5
      vertex 0.5 9.5 1.5
    endloop
  endfacet
  facet normal 0 0 1
    outer loop
      vertex 81.75 11.75 1.5
      vertex 79.5 5.5 1.5
      vertex 81.75 -1.75 1.5
    endloop
  endfacet
  facet normal -0 0 1
    outer loop
      vertex 79.5 4.5 1.5
      vertex 81.75 -1.75 1.5
      vertex 79.5 5.5 1.5
    endloop
  endfacet
  facet normal -0 0 1
    outer loop
      vertex 79.5 0.5 1.5
      vertex 81.75 -1.75 1.5
      vertex 79.5 4.5 1.5
    endloop
  endfacet
  facet normal -0 0 1
    outer loop
      vertex 60.5 0.5 1.5
      vertex 81.75 -1.75 1.5
      vertex 79.5 0.5 1.5
    endloop
  endfacet
  facet normal 0 0 1
    outer loop
      vertex 59.5 0.5 1.5
      vertex 60.5 0.5 1.5
      vertex 59.5 4.5 1.5
    endloop
  endfacet
  facet normal -0 0 1
    outer loop
      vertex 59.5 0.5 1.5
      vertex 81.75 -1.75 1.5
      vertex 60.5 0.5 1.5
    endloop
  endfacet
  facet normal -0 0 1
    outer loop
      vertex 50.5 0.5 1.5
      vertex 81.75 -1.75 1.5
      vertex 59.5 0.5 1.5
    endloop
  endfacet
  facet normal 0 0 1
    outer loop
      vertex 49.5 4.5 1.5
      vertex 50.5 4.5 1.5
      vertex 49.5 5.5 1.5
    endloop
  endfacet
  facet normal 0 0 1
    outer loop
      vertex 50.5 4.5 1.5
      vertex 49.5 4.5 1.5
      vertex 50.5 0.5 1.5
    endloop
  endfacet
  facet normal 0 0 1
    outer loop
      vertex 49.5 0.5 1.5
      vertex 50.5 0.5 1.5
      vertex 49.5 4.5 1.5
    endloop
  endfacet
  facet normal -0 0 1
    outer loop
      vertex 49.5 0.5 1.5
      vertex 81.75 -1.75 1.5
      vertex 50.5 0.5 1.5
    endloop
  endfacet
  facet normal -0 0 1
    outer loop
      vertex 40.5 0.5 1.5
      vertex 81.75 -1.75 1.5
      vertex 49.5 0.5 1.5
    endloop
  endfacet
  facet normal 0 0 1
    outer loop
      vertex 39.5 4.5 1.5
      vertex 40.5 4.5 1.5
      vertex 39.5 5.5 1.5
    endloop
  endfacet
  facet normal 0 0 1
    outer loop
      vertex 40.5 4.5 1.5
      vertex 39.5 4.5 1.5
      vertex 40.5 0.5 1.5
    endloop
  endfacet
  facet normal 0 0 1
    outer loop
      vertex 39.5 0.5 1.5
      vertex 40.5 0.5 1.5
      vertex 39.5 4.5 1.5
    endloop
  endfacet
  facet normal -0 0 1
    outer loop
      vertex 39.5 0.5 1.5
      vertex 81.75 -1.75 1.5
      vertex 40.5 0.5 1.5
    endloop
  endfacet
  facet normal 0 0 1
    outer loop
      vertex -1.75 -1.75 1.5
      vertex 39.5 0.5 1.5
      vertex 30.5 0.5 1.5
    endloop
  endfacet
  facet normal 0 0 1
    outer loop
      vertex 29.5 0.5 1.5
      vertex 30.5 0.5 1.5
      vertex 29.5 4.5 1.5
    endloop
  endfacet
  facet normal 0 0 1
    outer loop
      vertex -1.75 -1.75 1.5
      vertex 30.5 0.5 1.5
      vertex 29.5 0.5 1.5
    endloop
  endfacet
  facet normal 0 0 1
    outer loop
      vertex -1.75 -1.75 1.5
      vertex 29.5 0.5 1.5
      vertex 0.5 0.5 1.5
    endloop
  endfacet
  facet normal 0 0 1
    outer loop
      vertex 39.5 0.5 1.5
      vertex -1.75 -1.75 1.5
      vertex 81.75 -1.75 1.5
    endloop
  endfacet
  facet normal 0 0 1
    outer loop
      vertex 0.5 4.5 1.5
      vertex -1.75 -1.75 1.5
      vertex 0.5 0.5 1.5
    endloop
  endfacet
  facet normal 0 0 -1
    outer loop
      vertex 81.75 -1.75 -2
      vertex 80.25 -0.25 -2
      vertex 81.75 11.75 -2
    endloop
  endfacet
  facet normal 0 0 -1
    outer loop
      vertex 81.75 -1.75 -2
      vertex -0.25 -0.25 -2
      vertex 80.25 -0.25 -2
    endloop
  endfacet
  facet normal -0 0 -1
    outer loop
      vertex -0.25 -0.25 -2
      vertex -1.75 -1.75 -2
      vertex -0.25 10.25 -2
    endloop
  endfacet
  facet normal 0 0 -1
    outer loop
      vertex -1.75 -1.75 -2
      vertex -0.25 -0.25 -2
      vertex 81.75 -1.75 -2
    endloop
  endfacet
  facet normal 0 0 -1
    outer loop
      vertex 80.25 10.25 -2
      vertex 81.75 11.75 -2
      vertex 80.25 -0.25 -2
    endloop
  endfacet
  facet normal 0 0 -1
    outer loop
      vertex -0.25 10.25 -2
      vertex 81.75 11.75 -2
      vertex 80.25 10.25 -2
    endloop
  endfacet
  facet normal 0 0 -1
    outer loop
      vertex -0.25 10.25 -2
      vertex -1.75 11.75 -2
      vertex 81.75 11.75 -2
    endloop
  endfacet
  facet normal 0 0 -1
    outer loop
      vertex -1.75 11.75 -2
      vertex -0.25 10.25 -2
      vertex -1.75 -1.75 -2
    endloop
  endfacet
  facet normal -1 0 0
    outer loop
      vertex -1.75 -1.75 -2
      vertex -1.75 11.75 1.5
      vertex -1.75 11.75 -2
    endloop
  endfacet
  facet normal -1 -0 0
    outer loop
      vertex -1.75 11.75 1.5
      vertex -1.75 -1.75 -2
      vertex -1.75 -1.75 1.5
    endloop
  endfacet
  facet normal 0 1 -0
    outer loop
      vertex 81.75 11.75 -2
      vertex -1.75 11.75 1.5
      vertex 81.75 11.75 1.5
    endloop
  endfacet
  facet normal 0 1 0
    outer loop
      vertex -1.75 11.75 1.5
      vertex 81.75 11.75 -2
      vertex -1.75 11.75 -2
    endloop
  endfacet
  facet normal 0 -1 0
    outer loop
      vertex -1.75 -1.75 -2
      vertex 81.75 -1.75 1.5
      vertex -1.75 -1.75 1.5
    endloop
  endfacet
  facet normal 0 -1 -0
    outer loop
      vertex 81.75 -1.75 1.5
      vertex -1.75 -1.75 -2
      vertex 81.75 -1.75 -2
    endloop
  endfacet
  facet normal -1 0 0
    outer loop
      vertex 80.25 -0.25 -2
      vertex 80.25 10.25 -9.53674e-07
      vertex 80.25 10.25 -2
    endloop
  endfacet
  facet normal -1 -0 0
    outer loop
      vertex 80.25 10.25 -9.53674e-07
      vertex 80.25 -0.25 -2
      vertex 80.25 -0.25 -9.53674e-07
    endloop
  endfacet
  facet normal 0 0 -1
    outer loop
      vertex 30.5 4.5 -9.53674e-07
      vertex 39.5 5.5 -9.53674e-07
      vertex 39.5 4.5 -9.53674e-07
    endloop
  endfacet
  facet normal 0 0 -1
    outer loop
      vertex 29.5 4.5 -9.53674e-07
      vertex 30.5 4.5 -9.53674e-07
      vertex 29.5 0.5 -9.53674e-07
    endloop
  endfacet
  facet normal 0 0 -1
    outer loop
      vertex 29.5 4.5 -9.53674e-07
      vertex 39.5 5.5 -9.53674e-07
      vertex 30.5 4.5 -9.53674e-07
    endloop
  endfacet
  facet normal 0 0 -1
    outer loop
      vertex 29.5 4.5 -9.53674e-07
      vertex 10.5 5.5 -9.53674e-07
      vertex 39.5 5.5 -9.53674e-07
    endloop
  endfacet
  facet normal 0 0 -1
    outer loop
      vertex 10.5 5.5 -9.53674e-07
      vertex 9.5 5.5 -9.53674e-07
      vertex 10.5 9.5 -9.53674e-07
    endloop
  endfacet
  facet normal 0 0 -1
    outer loop
      vertex 0.5 4.5 -9.53674e-07
      vertex 10.5 5.5 -9.53674e-07
      vertex 29.5 4.5 -9.53674e-07
    endloop
  endfacet
  facet normal -0 0 -1
    outer loop
      vertex 10.5 5.5 -9.53674e-07
      vertex 0.5 4.5 -9.53674e-07
      vertex 9.5 5.5 -9.53674e-07
    endloop
  endfacet
  facet normal -0 0 -1
    outer loop
      vertex 9.5 5.5 -9.53674e-07
      vertex 0.5 4.5 -9.53674e-07
      vertex 0.5 5.5 -9.53674e-07
    endloop
  endfacet
  facet normal 0 0 -1
    outer loop
      vertex 40.5 4.5 -9.53674e-07
      vertex 49.5 5.5 -9.53674e-07
      vertex 49.5 4.5 -9.53674e-07
    endloop
  endfacet
  facet normal -0 0 -1
    outer loop
      vertex 49.5 5.5 -9.53674e-07
      vertex 40.5 4.5 -9.53674e-07
      vertex 40.5 5.5 -9.53674e-07
    endloop
  endfacet
  facet normal 0 0 -1
    outer loop
      vertex 60.5 4.5 -9.53674e-07
      vertex 79.5 5.5 -9.53674e-07
      vertex 79.5 4.5 -9.53674e-07
    endloop
  endfacet
  facet normal 0 0 -1
    outer loop
      vertex 59.5 4.5 -9.53674e-07
      vertex 60.5 4.5 -9.53674e-07
      vertex 59.5 0.5 -9.53674e-07
    endloop
  endfacet
  facet normal 0 0 -1
    outer loop
      vertex 50.5 5.5 -9.53674e-07
      vertex 60.5 4.5 -9.53674e-07
      vertex 59.5 4.5 -9.53674e-07
    endloop
  endfacet
  facet normal 0 0 -1
    outer loop
      vertex 50.5 5.5 -9.53674e-07
      vertex 59.5 4.5 -9.53674e-07
      vertex 50.5 4.5 -9.53674e-07
    endloop
  endfacet
  facet normal 0 0 -1
    outer loop
      vertex 60.5 4.5 -9.53674e-07
      vertex 50.5 5.5 -9.53674e-07
      vertex 79.5 5.5 -9.53674e-07
    endloop
  endfacet
  facet normal 0 0 -1
    outer loop
      vertex 79.5 4.5 -9.53674e-07
      vertex 80.25 -0.25 -9.53674e-07
      vertex 79.5 0.5 -9.53674e-07
    endloop
  endfacet
  facet normal 0 0 -1
    outer loop
      vertex 80.25 -0.25 -9.53674e-07
      vertex 60.5 0.5 -9.53674e-07
      vertex 79.5 0.5 -9.53674e-07
    endloop
  endfacet
  facet normal 0 0 -1
    outer loop
      vertex 60.5 0.5 -9.53674e-07
      vertex 59.5 0.5 -9.53674e-07
      vertex 60.5 4.5 -9.53674e-07
    endloop
  endfacet
  facet normal 0 0 -1
    outer loop
      vertex 80.25 -0.25 -9.53674e-07
      vertex 59.5 0.5 -9.53674e-07
      vertex 60.5 0.5 -9.53674e-07
    endloop
  endfacet
  facet normal 0 0 -1
    outer loop
      vertex 80.25 -0.25 -9.53674e-07
      vertex 50.5 0.5 -9.53674e-07
      vertex 59.5 0.5 -9.53674e-07
    endloop
  endfacet
  facet normal 0 0 -1
    outer loop
      vertex 49.5 4.5 -9.53674e-07
      vertex 50.5 4.5 -9.53674e-07
      vertex 50.5 0.5 -9.53674e-07
    endloop
  endfacet
  facet normal 0 0 -1
    outer loop
      vertex 50.5 4.5 -9.53674e-07
      vertex 49.5 4.5 -9.53674e-07
      vertex 50.5 5.5 -9.53674e-07
    endloop
  endfacet
  facet normal 0 0 -1
    outer loop
      vertex 49.5 4.5 -9.53674e-07
      vertex 50.5 0.5 -9.53674e-07
      vertex 49.5 0.5 -9.53674e-07
    endloop
  endfacet
  facet normal 0 0 -1
    outer loop
      vertex 80.25 -0.25 -9.53674e-07
      vertex 49.5 0.5 -9.53674e-07
      vertex 50.5 0.5 -9.53674e-07
    endloop
  endfacet
  facet normal 0 0 -1
    outer loop
      vertex 80.25 -0.25 -9.53674e-07
      vertex 40.5 0.5 -9.53674e-07
      vertex 49.5 0.5 -9.53674e-07
    endloop
  endfacet
  facet normal 0 0 -1
    outer loop
      vertex 39.5 4.5 -9.53674e-07
      vertex 40.5 4.5 -9.53674e-07
      vertex 40.5 0.5 -9.53674e-07
    endloop
  endfacet
  facet normal 0 0 -1
    outer loop
      vertex 40.5 4.5 -9.53674e-07
      vertex 39.5 4.5 -9.53674e-07
      vertex 40.5 5.5 -9.53674e-07
    endloop
  endfacet
  facet normal 0 0 -1
    outer loop
      vertex 39.5 4.5 -9.53674e-07
      vertex 40.5 0.5 -9.53674e-07
      vertex 39.5 0.5 -9.53674e-07
    endloop
  endfacet
  facet normal 0 0 -1
    outer loop
      vertex 80.25 -0.25 -9.53674e-07
      vertex 39.5 0.5 -9.53674e-07
      vertex 40.5 0.5 -9.53674e-07
    endloop
  endfacet
  facet normal 0 0 -1
    outer loop
      vertex 80.25 -0.25 -9.53674e-07
      vertex 30.5 0.5 -9.53674e-07
      vertex 39.5 0.5 -9.53674e-07
    endloop
  endfacet
  facet normal 0 0 -1
    outer loop
      vertex 30.5 0.5 -9.53674e-07
      vertex 29.5 0.5 -9.53674e-07
      vertex 30.5 4.5 -9.53674e-07
    endloop
  endfacet
  facet normal 0 0 -1
    outer loop
      vertex -0.25 -0.25 -9.53674e-07
      vertex 30.5 0.5 -9.53674e-07
      vertex 80.25 -0.25 -9.53674e-07
    endloop
  endfacet
  facet normal -0 0 -1
    outer loop
      vertex 30.5 0.5 -9.53674e-07
      vertex -0.25 -0.25 -9.53674e-07
      vertex 29.5 0.5 -9.53674e-07
    endloop
  endfacet
  facet normal 0 0 -1
    outer loop
      vertex -0.25 -0.25 -9.53674e-07
      vertex 0.5 4.5 -9.53674e-07
      vertex 0.5 0.5 -9.53674e-07
    endloop
  endfacet
  facet normal -0 0 -1
    outer loop
      vertex 0.5 4.5 -9.53674e-07
      vertex -0.25 -0.25 -9.53674e-07
      vertex 0.5 5.5 -9.53674e-07
    endloop
  endfacet
  facet normal 0 0 -1
    outer loop
      vertex -0.25 10.25 -9.53674e-07
      vertex 0.5 5.5 -9.53674e-07
      vertex -0.25 -0.25 -9.53674e-07
    endloop
  endfacet
  facet normal -0 0 -1
    outer loop
      vertex 29.5 0.5 -9.53674e-07
      vertex -0.25 -0.25 -9.53674e-07
      vertex 0.5 0.5 -9.53674e-07
    endloop
  endfacet
  facet normal 0 0 -1
    outer loop
      vertex 80.25 -0.25 -9.53674e-07
      vertex 79.5 4.5 -9.53674e-07
      vertex 80.25 10.25 -9.53674e-07
    endloop
  endfacet
  facet normal 0 0 -1
    outer loop
      vertex 79.5 5.5 -9.53674e-07
      vertex 80.25 10.25 -9.53674e-07
      vertex 79.5 4.5 -9.53674e-07
    endloop
  endfacet
  facet normal 0 0 -1
    outer loop
      vertex 79.5 9.5 -9.53674e-07
      vertex 80.25 10.25 -9.53674e-07
      vertex 79.5 5.5 -9.53674e-07
    endloop
  endfacet
  facet normal 0 0 -1
    outer loop
      vertex 50.5 9.5 -9.53674e-07
      vertex 80.25 10.25 -9.53674e-07
      vertex 79.5 9.5 -9.53674e-07
    endloop
  endfacet
  facet normal 0 0 -1
    outer loop
      vertex 49.5 5.5 -9.53674e-07
      vertex 50.5 5.5 -9.53674e-07
      vertex 49.5 4.5 -9.53674e-07
    endloop
  endfacet
  facet normal 0 0 -1
    outer loop
      vertex 50.5 5.5 -9.53674e-07
      vertex 49.5 5.5 -9.53674e-07
      vertex 50.5 9.5 -9.53674e-07
    endloop
  endfacet
  facet normal 0 0 -1
    outer loop
      vertex 49.5 9.5 -9.53674e-07
      vertex 50.5 9.5 -9.53674e-07
      vertex 49.5 5.5 -9.53674e-07
    endloop
  endfacet
  facet normal 0 0 -1
    outer loop
      vertex 49.5 9.5 -9.53674e-07
      vertex 80.25 10.25 -9.53674e-07
      vertex 50.5 9.5 -9.53674e-07
    endloop
  endfacet
  facet normal 0 0 -1
    outer loop
      vertex 40.5 9.5 -9.53674e-07
      vertex 80.25 10.25 -9.53674e-07
      vertex 49.5 9.5 -9.53674e-07
    endloop
  endfacet
  facet normal 0 0 -1
    outer loop
      vertex 39.5 5.5 -9.53674e-07
      vertex 40.5 5.5 -9.53674e-07
      vertex 39.5 4.5 -9.53674e-07
    endloop
  endfacet
  facet normal 0 0 -1
    outer loop
      vertex 40.5 5.5 -9.53674e-07
      vertex 39.5 5.5 -9.53674e-07
      vertex 40.5 9.5 -9.53674e-07
    endloop
  endfacet
  facet normal 0 0 -1
    outer loop
      vertex 39.5 9.5 -9.53674e-07
      vertex 40.5 9.5 -9.53674e-07
      vertex 39.5 5.5 -9.53674e-07
    endloop
  endfacet
  facet normal 0 0 -1
    outer loop
      vertex 39.5 9.5 -9.53674e-07
      vertex 80.25 10.25 -9.53674e-07
      vertex 40.5 9.5 -9.53674e-07
    endloop
  endfacet
  facet normal 0 0 -1
    outer loop
      vertex -0.25 10.25 -9.53674e-07
      vertex 39.5 9.5 -9.53674e-07
      vertex 10.5 9.5 -9.53674e-07
    endloop
  endfacet
  facet normal 0 0 -1
    outer loop
      vertex 9.5 9.5 -9.53674e-07
      vertex 10.5 9.5 -9.53674e-07
      vertex 9.5 5.5 -9.53674e-07
    endloop
  endfacet
  facet normal 0 0 -1
    outer loop
      vertex -0.25 10.25 -9.53674e-07
      vertex 10.5 9.5 -9.53674e-07
      vertex 9.5 9.5 -9.53674e-07
    endloop
  endfacet
  facet normal 0 0 -1
    outer loop
      vertex -0.25 10.25 -9.53674e-07
      vertex 9.5 9.5 -9.53674e-07
      vertex 0.5 9.5 -9.53674e-07
    endloop
  endfacet
  facet normal 0 0 -1
    outer loop
      vertex 39.5 9.5 -9.53674e-07
      vertex -0.25 10.25 -9.53674e-07
      vertex 80.25 10.25 -9.53674e-07
    endloop
  endfacet
  facet normal 0 0 -1
    outer loop
      vertex 0.5 5.5 -9.53674e-07
      vertex -0.25 10.25 -9.53674e-07
      vertex 0.5 9.5 -9.53674e-07
    endloop
  endfacet
  facet normal 1 -0 0
    outer loop
      vertex -0.25 -0.25 -9.53674e-07
      vertex -0.25 10.25 -2
      vertex -0.25 10.25 -9.53674e-07
    endloop
  endfacet
  facet normal 1 0 0
    outer loop
      vertex -0.25 10.25 -2
      vertex -0.25 -0.25 -9.53674e-07
      vertex -0.25 -0.25 -2
    endloop
  endfacet
  facet normal 0 -1 0
    outer loop
      vertex -0.25 10.25 -2
      vertex 80.25 10.25 -9.53674e-07
      vertex -0.25 10.25 -9.53674e-07
    endloop
  endfacet
  facet normal 0 -1 -0
    outer loop
      vertex 80.25 10.25 -9.53674e-07
      vertex -0.25 10.25 -2
      vertex 80.25 10.25 -2
    endloop
  endfacet
  facet normal 0 1 -0
    outer loop
      vertex 80.25 -0.25 -2
      vertex -0.25 -0.25 -9.53674e-07
      vertex 80.25 -0.25 -9.53674e-07
    endloop
  endfacet
  facet normal 0 1 0
    outer loop
      vertex -0.25 -0.25 -9.53674e-07
      vertex 80.25 -0.25 -2
      vertex -0.25 -0.25 -2
    endloop
  endfacet
  facet normal -1 0 0
    outer loop
      vertex 29.5 0.5 -9.53674e-07
      vertex 29.5 4.5 1.5
      vertex 29.5 4.5 -9.53674e-07
    endloop
  endfacet
  facet normal -1 -0 0
    outer loop
      vertex 29.5 4.5 1.5
      vertex 29.5 0.5 -9.53674e-07
      vertex 29.5 0.5 1.5
    endloop
  endfacet
  facet normal 1 -0 0
    outer loop
      vertex 0.5 0.5 1.5
      vertex 0.5 4.5 -9.53674e-07
      vertex 0.5 4.5 1.5
    endloop
  endfacet
  facet normal 1 0 0
    outer loop
      vertex 0.5 4.5 -9.53674e-07
      vertex 0.5 0.5 1.5
      vertex 0.5 0.5 -9.53674e-07
    endloop
  endfacet
  facet normal 0 -1 0
    outer loop
      vertex 0.5 4.5 -9.53674e-07
      vertex 29.5 4.5 1.5
      vertex 0.5 4.5 1.5
    endloop
  endfacet
  facet normal 0 -1 -0
    outer loop
      vertex 29.5 4.5 1.5
      vertex 0.5 4.5 -9.53674e-07
      vertex 29.5 4.5 -9.53674e-07
    endloop
  endfacet
  facet normal 0 1 -0
    outer loop
      vertex 29.5 0.5 -9.53674e-07
      vertex 0.5 0.5 1.5
      vertex 29.5 0.5 1.5
    endloop
  endfacet
  facet normal 0 1 0
    outer loop
      vertex 0.5 0.5 1.5
      vertex 29.5 0.5 -9.53674e-07
      vertex 0.5 0.5 -9.53674e-07
    endloop
  endfacet
  facet normal -1 0 0
    outer loop
      vertex 39.5 0.5 -9.53674e-07
      vertex 39.5 4.5 1.5
      vertex 39.5 4.5 -9.53674e-07
    endloop
  endfacet
  facet normal -1 -0 0
    outer loop
      vertex 39.5 4.5 1.5
      vertex 39.5 0.5 -9.53674e-07
      vertex 39.5 0.5 1.5
    endloop
  endfacet
  facet normal 1 -0 0
    outer loop
      vertex 30.5 0.5 1.5
      vertex 30.5 4.5 -9.53674e-07
      vertex 30.5 4.5 1.5
    endloop
  endfacet
  facet normal 1 0 0
    outer loop
      vertex 30.5 4.5 -9.53674e-07
      vertex 30.5 0.5 1.5
      vertex 30.5 0.5 -9.53674e-07
    endloop
  endfacet
  facet normal 0 -1 0
    outer loop
      vertex 30.5 4.5 -9.53674e-07
      vertex 39.5 4.5 1.5
      vertex 30.5 4.5 1.5
    endloop
  endfacet
  facet normal 0 -1 -0
    outer loop
      vertex 39.5 4.5 1.5
      vertex 30.5 4.5 -9.53674e-07
      vertex 39.5 4.5 -9.53674e-07
    endloop
  endfacet
  facet normal 0 1 -0
    outer loop
      vertex 39.5 0.5 -9.53674e-07
      vertex 30.5 0.5 1.5
      vertex 39.5 0.5 1.5
    endloop
  endfacet
  facet normal 0 1 0
    outer loop
      vertex 30.5 0.5 1.5
      vertex 39.5 0.5 -9.53674e-07
      vertex 30.5 0.5 -9.53674e-07
    endloop
  endfacet
  facet normal -1 0 0
    outer loop
      vertex 49.5 0.5 -9.53674e-07
      vertex 49.5 4.5 1.5
      vertex 49.5 4.5 -9.53674e-07
    endloop
  endfacet
  facet normal -1 -0 0
    outer loop
      vertex 49.5 4.5 1.5
      vertex 49.5 0.5 -9.53674e-07
      vertex 49.5 0.5 1.5
    endloop
  endfacet
  facet normal 1 -0 0
    outer loop
      vertex 40.5 0.5 1.5
      vertex 40.5 4.5 -9.53674e-07
      vertex 40.5 4.5 1.5
    endloop
  endfacet
  facet normal 1 0 0
    outer loop
      vertex 40.5 4.5 -9.53674e-07
      vertex 40.5 0.5 1.5
      vertex 40.5 0.5 -9.53674e-07
    endloop
  endfacet
  facet normal 0 -1 0
    outer loop
      vertex 40.5 4.5 -9.53674e-07
      vertex 49.5 4.5 1.5
      vertex 40.5 4.5 1.5
    endloop
  endfacet
  facet normal 0 -1 -0
    outer loop
      vertex 49.5 4.5 1.5
      vertex 40.5 4.5 -9.53674e-07
      vertex 49.5 4.5 -9.53674e-07
    endloop
  endfacet
  facet normal 0 1 -0
    outer loop
      vertex 49.5 0.5 -9.53674e-07
      vertex 40.5 0.5 1.5
      vertex 49.5 0.5 1.5
    endloop
  endfacet
  facet normal 0 1 0
    outer loop
      vertex 40.5 0.5 1.5
      vertex 49.5 0.5 -9.53674e-07
      vertex 40.5 0.5 -9.53674e-07
    endloop
  endfacet
  facet normal -1 0 0
    outer loop
      vertex 59.5 0.5 -9.53674e-07
      vertex 59.5 4.5 1.5
      vertex 59.5 4.5 -9.53674e-07
    endloop
  endfacet
  facet normal -1 -0 0
    outer loop
      vertex 59.5 4.5 1.5
      vertex 59.5 0.5 -9.53674e-07
      vertex 59.5 0.5 1.5
    endloop
  endfacet
  facet normal 1 -0 0
    outer loop
      vertex 50.5 0.5 1.5
      vertex 50.5 4.5 -9.53674e-07
      vertex 50.5 4.5 1.5
    endloop
  endfacet
  facet normal 1 0 0
    outer loop
      vertex 50.5 4.5 -9.53674e-07
      vertex 50.5 0.5 1.5
      vertex 50.5 0.5 -9.53674e-07
    endloop
  endfacet
  facet normal 0 -1 0
    outer loop
      vertex 50.5 4.5 -9.53674e-07
      vertex 59.5 4.5 1.5
      vertex 50.5 4.5 1.5
    endloop
  endfacet
  facet normal 0 -1 -0
    outer loop
      vertex 59.5 4.5 1.5
      vertex 50.5 4.5 -9.53674e-07
      vertex 59.5 4.5 -9.53674e-07
    endloop
  endfacet
  facet normal 0 1 -0
    outer loop
      vertex 59.5 0.5 -9.53674e-07
      vertex 50.5 0.5 1.5
      vertex 59.5 0.5 1.5
    endloop
  endfacet
  facet normal 0 1 0
    outer loop
      vertex 50.5 0.5 1.5
      vertex 59.5 0.5 -9.53674e-07
      vertex 50.5 0.5 -9.53674e-07
    endloop
  endfacet
  facet normal -1 0 0
    outer loop
      vertex 79.5 0.5 -9.53674e-07
      vertex 79.5 4.5 1.5
      vertex 79.5 4.5 -9.53674e-07
    endloop
  endfacet
  facet normal -1 -0 0
    outer loop
      vertex 79.5 4.5 1.5
      vertex 79.5 0.5 -9.53674e-07
      vertex 79.5 0.5 1.5
    endloop
  endfacet
  facet normal 1 -0 0
    outer loop
      vertex 60.5 0.5 1.5
      vertex 60.5 4.5 -9.53674e-07
      vertex 60.5 4.5 1.5
    endloop
  endfacet
  facet normal 1 0 0
    outer loop
      vertex 60.5 4.5 -9.53674e-07
      vertex 60.5 0.5 1.5
      vertex 60.5 0.5 -9.53674e-07
    endloop
  endfacet
  facet normal 0 -1 0
    outer loop
      vertex 60.5 4.5 -9.53674e-07
      vertex 79.5 4.5 1.5
      vertex 60.5 4.5 1.5
    endloop
  endfacet
  facet normal 0 -1 -0
    outer loop
      vertex 79.5 4.5 1.5
      vertex 60.5 4.5 -9.53674e-07
      vertex 79.5 4.5 -9.53674e-07
    endloop
  endfacet
  facet normal 0 1 -0
    outer loop
      vertex 79.5 0.5 -9.53674e-07
      vertex 60.5 0.5 1.5
      vertex 79.5 0.5 1.5
    endloop
  endfacet
  facet normal 0 1 0
    outer loop
      vertex 60.5 0.5 1.5
      vertex 79.5 0.5 -9.53674e-07
      vertex 60.5 0.5 -9.53674e-07
    endloop
  endfacet
  facet normal -1 0 0
    outer loop
      vertex 9.5 5.5 -9.53674e-07
      vertex 9.5 9.5 1.5
      vertex 9.5 9.5 -9.53674e-07
    endloop
  endfacet
  facet normal -1 -0 0
    outer loop
      vertex 9.5 9.5 1.5
      vertex 9.5 5.5 -9.53674e-07
      vertex 9.5 5.5 1.5
    endloop
  endfacet
  facet normal 1 -0 0
    outer loop
      vertex 0.5 5.5 1.5
      vertex 0.5 9.5 -9.53674e-07
      vertex 0.5 9.5 1.5
    endloop
  endfacet
  facet normal 1 0 0
    outer loop
      vertex 0.5 9.5 -9.53674e-07
      vertex 0.5 5.5 1.5
      vertex 0.5 5.5 -9.53674e-07
    endloop
  endfacet
  facet normal 0 -1 0
    outer loop
      vertex 0.5 9.5 -9.53674e-07
      vertex 9.5 9.5 1.5
      vertex 0.5 9.5 1.5
    endloop
  endfacet
  facet normal 0 -1 -0
    outer loop
      vertex 9.5 9.5 1.5
      vertex 0.5 9.5 -9.53674e-07
      vertex 9.5 9.5 -9.53674e-07
    endloop
  endfacet
  facet normal 0 1 -0
    outer loop
      vertex 9.5 5.5 -9.53674e-07
      vertex 0.5 5.5 1.5
      vertex 9.5 5.5 1.5
    endloop
  endfacet
  facet normal 0 1 0
    outer loop
      vertex 0.5 5.5 1.5
      vertex 9.5 5.5 -9.53674e-07
      vertex 0.5 5.5 -9.53674e-07
    endloop
  endfacet
  facet normal -1 0 0
    outer loop
      vertex 39.5 5.5 -9.53674e-07
      vertex 39.5 9.5 1.5
      vertex 39.5 9.5 -9.53674e-07
    endloop
  endfacet
  facet normal -1 -0 0
    outer loop
      vertex 39.5 9.5 1.5
      vertex 39.5 5.5 -9.53674e-07
      vertex 39.5 5.5 1.5
    endloop
  endfacet
  facet normal 1 -0 0
    outer loop
      vertex 10.5 5.5 1.5
      vertex 10.5 9.5 -9.53674e-07
      vertex 10.5 9.5 1.5
    endloop
  endfacet
  facet normal 1 0 0
    outer loop
      vertex 10.5 9.5 -9.53674e-07
      vertex 10.5 5.5 1.5
      vertex 10.5 5.5 -9.53674e-07
    endloop
  endfacet
  facet normal 0 -1 0
    outer loop
      vertex 10.5 9.5 -9.53674e-07
      vertex 39.5 9.5 1.5
      vertex 10.5 9.5 1.5
    endloop
  endfacet
  facet normal 0 -1 -0
    outer loop
      vertex 39.5 9.5 1.5
      vertex 10.5 9.5 -9.53674e-07
      vertex 39.5 9.5 -9.53674e-07
    endloop
  endfacet
  facet normal 0 1 -0
    outer loop
      vertex 39.5 5.5 -9.53674e-07
      vertex 10.5 5.5 1.5
      vertex 39.5 5.5 1.5
    endloop
  endfacet
  facet normal 0 1 0
    outer loop
      vertex 10.5 5.5 1.5
      vertex 39.5 5.5 -9.53674e-07
      vertex 10.5 5.5 -9.53674e-07
    endloop
  endfacet
  facet normal -1 0 0
    outer loop
      vertex 49.5 5.5 -9.53674e-07
      vertex 49.5 9.5 1.5
      vertex 49.5 9.5 -9.53674e-07
    endloop
  endfacet
  facet normal -1 -0 0
    outer loop
      vertex 49.5 9.5 1.5
      vertex 49.5 5.5 -9.53674e-07
      vertex 49.5 5.5 1.5
    endloop
  endfacet
  facet normal 1 -0 0
    outer loop
      vertex 40.5 5.5 1.5
      vertex 40.5 9.5 -9.53674e-07
      vertex 40.5 9.5 1.5
    endloop
  endfacet
  facet normal 1 0 0
    outer loop
      vertex 40.5 9.5 -9.53674e-07
      vertex 40.5 5.5 1.5
      vertex 40.5 5.5 -9.53674e-07
    endloop
  endfacet
  facet normal 0 -1 0
    outer loop
      vertex 40.5 9.5 -9.53674e-07
      vertex 49.5 9.5 1.5
      vertex 40.5 9.5 1.5
    endloop
  endfacet
  facet normal 0 -1 -0
    outer loop
      vertex 49.5 9.5 1.5
      vertex 40.5 9.5 -9.53674e-07
      vertex 49.5 9.5 -9.53674e-07
    endloop
  endfacet
  facet normal 0 1 -0
    outer loop
      vertex 49.5 5.5 -9.53674e-07
      vertex 40.5 5.5 1.5
      vertex 49.5 5.5 1.5
    endloop
  endfacet
  facet normal 0 1 0
    outer loop
      vertex 40.5 5.5 1.5
      vertex 49.5 5.5 -9.53674e-07
      vertex 40.5 5.5 -9.53674e-07
    endloop
  endfacet
  facet normal -1 0 0
    outer loop
      vertex 79.5 5.5 -9.53674e-07
      vertex 79.5 9.5 1.5
      vertex 79.5 9.5 -9.53674e-07
    endloop
  endfacet
  facet normal -1 -0 0
    outer loop
      vertex 79.5 9.5 1.5
      vertex 79.5 5.5 -9.53674e-07
      vertex 79.5 5.5 1.5
    endloop
  endfacet
  facet normal 1 -0 0
    outer loop
      vertex 50.5 5.5 1.5
      vertex 50.5 9.5 -9.53674e-07
      vertex 50.5 9.5 1.5
    endloop
  endfacet
  facet normal 1 0 0
    outer loop
      vertex 50.5 9.5 -9.53674e-07
      vertex 50.5 5.5 1.5
      vertex 50.5 5.5 -9.53674e-07
    endloop
  endfacet
  facet normal 0 -1 0
    outer loop
      vertex 50.5 9.5 -9.53674e-07
      vertex 79.5 9.5 1.5
      vertex 50.5 9.5 1.5
    endloop
  endfacet
  facet normal 0 -1 -0
    outer loop
      vertex 79.5 9.5 1.5
      vertex 50.5 9.5 -9.53674e-07
      vertex 79.5 9.5 -9.53674e-07
    endloop
  endfacet
  facet normal 0 1 -0
    outer loop
      vertex 79.5 5.5 -9.53674e-07
      vertex 50.5 5.5 1.5
      vertex 79.5 5.5 1.5
    endloop
  endfacet
  facet normal 0 1 0
    outer loop
      vertex 50.5 5.5 1.5
      vertex 79.5 5.5 -9.53674e-07
      vertex 50.5 5.5 -9.53674e-07
    endloop
  endfacet
endsolid OpenSCAD_Model
