solid OpenSCAD_Model
  facet normal 1 -0 0
    outer loop
      vertex 2.75 0 1.36102
      vertex 2.75 22.8 0
      vertex 2.75 22.8 1.36102
    endloop
  endfacet
  facet normal 1 0 0
    outer loop
      vertex 2.75 22.8 0
      vertex 2.75 0 1.36102
      vertex 2.75 0 0
    endloop
  endfacet
  facet normal 0 1 0
    outer loop
      vertex 0.408138 22.8 0.762827
      vertex 2.75 22.8 0
      vertex 0 22.8 0.75
    endloop
  endfacet
  facet normal 0 1 0
    outer loop
      vertex 0.814666 22.8 0.801255
      vertex 2.75 22.8 0
      vertex 0.408138 22.8 0.762827
    endloop
  endfacet
  facet normal 0 1 0
    outer loop
      vertex 1.21798 22.8 0.865133
      vertex 2.75 22.8 0
      vertex 0.814666 22.8 0.801255
    endloop
  endfacet
  facet normal 0 1 0
    outer loop
      vertex 1.61648 22.8 0.95421
      vertex 2.75 22.8 0
      vertex 1.21798 22.8 0.865133
    endloop
  endfacet
  facet normal 0 1 0
    outer loop
      vertex 2.00861 22.8 1.06813
      vertex 2.75 22.8 0
      vertex 1.61648 22.8 0.95421
    endloop
  endfacet
  facet normal 0 1 0
    outer loop
      vertex 2.39281 22.8 1.20645
      vertex 2.75 22.8 0
      vertex 2.00861 22.8 1.06813
    endloop
  endfacet
  facet normal 0 1 -0
    outer loop
      vertex 2.75 22.8 0
      vertex 2.39281 22.8 1.20645
      vertex 2.75 22.8 1.36102
    endloop
  endfacet
  facet normal 0 1 0
    outer loop
      vertex -2.75 22.8 0
      vertex 0 22.8 0.75
      vertex 2.75 22.8 0
    endloop
  endfacet
  facet normal 0 1 0
    outer loop
      vertex 0 22.8 0.75
      vertex -2.75 22.8 0
      vertex -0.408138 22.8 0.762827
    endloop
  endfacet
  facet normal 0 1 0
    outer loop
      vertex -0.408138 22.8 0.762827
      vertex -2.75 22.8 0
      vertex -0.814666 22.8 0.801255
    endloop
  endfacet
  facet normal 0 1 0
    outer loop
      vertex -2.39281 22.8 1.20645
      vertex -2.75 22.8 0
      vertex -2.75 22.8 1.36102
    endloop
  endfacet
  facet normal 0 1 0
    outer loop
      vertex -2.00861 22.8 1.06813
      vertex -2.75 22.8 0
      vertex -2.39281 22.8 1.20645
    endloop
  endfacet
  facet normal 0 1 0
    outer loop
      vertex -1.61648 22.8 0.95421
      vertex -2.75 22.8 0
      vertex -2.00861 22.8 1.06813
    endloop
  endfacet
  facet normal 0 1 0
    outer loop
      vertex -1.21798 22.8 0.865133
      vertex -2.75 22.8 0
      vertex -1.61648 22.8 0.95421
    endloop
  endfacet
  facet normal 0 1 0
    outer loop
      vertex -0.814666 22.8 0.801255
      vertex -2.75 22.8 0
      vertex -1.21798 22.8 0.865133
    endloop
  endfacet
  facet normal 0 -1 -0
    outer loop
      vertex -0.408138 0 0.762827
      vertex -2.75 0 0
      vertex 0 0 0.75
    endloop
  endfacet
  facet normal 0 -1 -0
    outer loop
      vertex -0.814666 0 0.801255
      vertex -2.75 0 0
      vertex -0.408138 0 0.762827
    endloop
  endfacet
  facet normal 0 -1 -0
    outer loop
      vertex -1.21798 0 0.865133
      vertex -2.75 0 0
      vertex -0.814666 0 0.801255
    endloop
  endfacet
  facet normal 0 -1 -0
    outer loop
      vertex -1.61648 0 0.95421
      vertex -2.75 0 0
      vertex -1.21798 0 0.865133
    endloop
  endfacet
  facet normal 0 -1 -0
    outer loop
      vertex -2.00861 0 1.06813
      vertex -2.75 0 0
      vertex -1.61648 0 0.95421
    endloop
  endfacet
  facet normal 0 -1 -0
    outer loop
      vertex -2.39281 0 1.20645
      vertex -2.75 0 0
      vertex -2.00861 0 1.06813
    endloop
  endfacet
  facet normal 0 -1 0
    outer loop
      vertex -2.75 0 0
      vertex -2.39281 0 1.20645
      vertex -2.75 0 1.36102
    endloop
  endfacet
  facet normal 0 -1 0
    outer loop
      vertex 2.75 0 0
      vertex 0 0 0.75
      vertex -2.75 0 0
    endloop
  endfacet
  facet normal 0 -1 0
    outer loop
      vertex 0 0 0.75
      vertex 2.75 0 0
      vertex 0.408138 0 0.762827
    endloop
  endfacet
  facet normal 0 -1 0
    outer loop
      vertex 0.408138 0 0.762827
      vertex 2.75 0 0
      vertex 0.814666 0 0.801255
    endloop
  endfacet
  facet normal 0 -1 0
    outer loop
      vertex 2.39281 0 1.20645
      vertex 2.75 0 0
      vertex 2.75 0 1.36102
    endloop
  endfacet
  facet normal 0 -1 0
    outer loop
      vertex 2.00861 0 1.06813
      vertex 2.75 0 0
      vertex 2.39281 0 1.20645
    endloop
  endfacet
  facet normal 0 -1 0
    outer loop
      vertex 1.61648 0 0.95421
      vertex 2.75 0 0
      vertex 2.00861 0 1.06813
    endloop
  endfacet
  facet normal 0 -1 0
    outer loop
      vertex 1.21798 0 0.865133
      vertex 2.75 0 0
      vertex 1.61648 0 0.95421
    endloop
  endfacet
  facet normal 0 -1 0
    outer loop
      vertex 0.814666 0 0.801255
      vertex 2.75 0 0
      vertex 1.21798 0 0.865133
    endloop
  endfacet
  facet normal -1 0 0
    outer loop
      vertex -2.75 0 0
      vertex -2.75 22.8 1.36102
      vertex -2.75 22.8 0
    endloop
  endfacet
  facet normal -1 -0 0
    outer loop
      vertex -2.75 22.8 1.36102
      vertex -2.75 0 0
      vertex -2.75 0 1.36102
    endloop
  endfacet
  facet normal 0 0 -1
    outer loop
      vertex -2.75 0 0
      vertex 2.75 22.8 0
      vertex 2.75 0 0
    endloop
  endfacet
  facet normal -0 0 -1
    outer loop
      vertex 2.75 22.8 0
      vertex -2.75 0 0
      vertex -2.75 22.8 0
    endloop
  endfacet
  facet normal -0.397148 0 0.917755
    outer loop
      vertex 2.39281 22.8 1.20645
      vertex 2.75 0 1.36102
      vertex 2.75 22.8 1.36102
    endloop
  endfacet
  facet normal -0.397148 0 0.917755
    outer loop
      vertex 2.75 0 1.36102
      vertex 2.39281 22.8 1.20645
      vertex 2.39281 0 1.20645
    endloop
  endfacet
  facet normal 0.338737 0 0.940881
    outer loop
      vertex -2.39281 22.8 1.20645
      vertex -2.00861 0 1.06813
      vertex -2.00861 22.8 1.06813
    endloop
  endfacet
  facet normal 0.338737 0 0.940881
    outer loop
      vertex -2.00861 0 1.06813
      vertex -2.39281 22.8 1.20645
      vertex -2.39281 0 1.20645
    endloop
  endfacet
  facet normal 0.156433 0 0.987689
    outer loop
      vertex -1.21798 22.8 0.865133
      vertex -0.814666 0 0.801255
      vertex -0.814666 22.8 0.801255
    endloop
  endfacet
  facet normal 0.156433 0 0.987689
    outer loop
      vertex -0.814666 0 0.801255
      vertex -1.21798 22.8 0.865133
      vertex -1.21798 0 0.865133
    endloop
  endfacet
  facet normal -0.218147 0 0.975916
    outer loop
      vertex 1.21798 22.8 0.865133
      vertex 1.61648 0 0.95421
      vertex 1.61648 22.8 0.95421
    endloop
  endfacet
  facet normal -0.218147 0 0.975916
    outer loop
      vertex 1.61648 0 0.95421
      vertex 1.21798 22.8 0.865133
      vertex 1.21798 0 0.865133
    endloop
  endfacet
  facet normal -0.338737 0 0.940881
    outer loop
      vertex 2.00861 22.8 1.06813
      vertex 2.39281 0 1.20645
      vertex 2.39281 22.8 1.20645
    endloop
  endfacet
  facet normal -0.338737 0 0.940881
    outer loop
      vertex 2.39281 0 1.20645
      vertex 2.00861 22.8 1.06813
      vertex 2.00861 0 1.06813
    endloop
  endfacet
  facet normal 0.0314126 0 0.999507
    outer loop
      vertex -0.408138 22.8 0.762827
      vertex 0 0 0.75
      vertex 0 22.8 0.75
    endloop
  endfacet
  facet normal 0.0314126 0 0.999507
    outer loop
      vertex 0 0 0.75
      vertex -0.408138 22.8 0.762827
      vertex -0.408138 0 0.762827
    endloop
  endfacet
  facet normal 0.218147 0 0.975916
    outer loop
      vertex -1.61648 22.8 0.95421
      vertex -1.21798 0 0.865133
      vertex -1.21798 22.8 0.865133
    endloop
  endfacet
  facet normal 0.218147 0 0.975916
    outer loop
      vertex -1.21798 0 0.865133
      vertex -1.61648 22.8 0.95421
      vertex -1.61648 0 0.95421
    endloop
  endfacet
  facet normal -0.0314126 0 0.999507
    outer loop
      vertex 0 22.8 0.75
      vertex 0.408138 0 0.762827
      vertex 0.408138 22.8 0.762827
    endloop
  endfacet
  facet normal -0.0314126 0 0.999507
    outer loop
      vertex 0.408138 0 0.762827
      vertex 0 22.8 0.75
      vertex 0 0 0.75
    endloop
  endfacet
  facet normal 0.397148 0 0.917755
    outer loop
      vertex -2.75 22.8 1.36102
      vertex -2.39281 0 1.20645
      vertex -2.39281 22.8 1.20645
    endloop
  endfacet
  facet normal 0.397148 0 0.917755
    outer loop
      vertex -2.39281 0 1.20645
      vertex -2.75 22.8 1.36102
      vertex -2.75 0 1.36102
    endloop
  endfacet
  facet normal -0.156433 0 0.987689
    outer loop
      vertex 0.814666 22.8 0.801255
      vertex 1.21798 0 0.865133
      vertex 1.21798 22.8 0.865133
    endloop
  endfacet
  facet normal -0.156433 0 0.987689
    outer loop
      vertex 1.21798 0 0.865133
      vertex 0.814666 22.8 0.801255
      vertex 0.814666 0 0.801255
    endloop
  endfacet
  facet normal 0.278981 0 0.960297
    outer loop
      vertex -2.00861 22.8 1.06813
      vertex -1.61648 0 0.95421
      vertex -1.61648 22.8 0.95421
    endloop
  endfacet
  facet normal 0.278981 0 0.960297
    outer loop
      vertex -1.61648 0 0.95421
      vertex -2.00861 22.8 1.06813
      vertex -2.00861 0 1.06813
    endloop
  endfacet
  facet normal 0.0941078 0 0.995562
    outer loop
      vertex -0.814666 22.8 0.801255
      vertex -0.408138 0 0.762827
      vertex -0.408138 22.8 0.762827
    endloop
  endfacet
  facet normal 0.0941078 0 0.995562
    outer loop
      vertex -0.408138 0 0.762827
      vertex -0.814666 22.8 0.801255
      vertex -0.814666 0 0.801255
    endloop
  endfacet
  facet normal -0.0941078 0 0.995562
    outer loop
      vertex 0.408138 22.8 0.762827
      vertex 0.814666 0 0.801255
      vertex 0.814666 22.8 0.801255
    endloop
  endfacet
  facet normal -0.0941078 0 0.995562
    outer loop
      vertex 0.814666 0 0.801255
      vertex 0.408138 22.8 0.762827
      vertex 0.408138 0 0.762827
    endloop
  endfacet
  facet normal -0.278981 0 0.960297
    outer loop
      vertex 1.61648 22.8 0.95421
      vertex 2.00861 0 1.06813
      vertex 2.00861 22.8 1.06813
    endloop
  endfacet
  facet normal -0.278981 0 0.960297
    outer loop
      vertex 2.00861 0 1.06813
      vertex 1.61648 22.8 0.95421
      vertex 1.61648 0 0.95421
    endloop
  endfacet
endsolid OpenSCAD_Model
