<?xml version="1.0" standalone="no"?>
<!DOCTYPE svg PUBLIC "-//W3C//DTD SVG 1.1//EN" "http://www.w3.org/Graphics/SVG/1.1/DTD/svg11.dtd">
<svg width="42mm" height="38mm" viewBox="-21 -28 42 38" xmlns="http://www.w3.org/2000/svg" version="1.1">
<title>OpenSCAD Model</title>
<path d="
M -20.7365,-9.90399 L -20.7305,-9.73242 L -20.7126,-9.57019 L -20.6826,-9.4173 L -20.6408,-9.27376 L -20.5869,-9.13956
 L -20.5211,-9.01469 L -20.4433,-8.89917 L -20.3535,-8.793 L -20.2532,-8.69807 L -20.1438,-8.61581 L -20.0253,-8.5462
 L -19.8978,-8.48926 L -19.7611,-8.44496 L -19.6153,-8.41331 L -19.4605,-8.39433 L -19.2965,-8.388 L -19.1885,-8.39087
 L -19.0839,-8.39944 L -18.9827,-8.41374 L -18.885,-8.43375 L -18.7907,-8.45949 L -18.6999,-8.49094 L -18.6125,-8.52811
 L -18.5285,-8.571 L -18.4487,-8.61954 L -18.3736,-8.67313 L -18.3033,-8.73178 L -18.2378,-8.7955 L -18.177,-8.86429
 L -18.1211,-8.93813 L -18.0699,-9.01703 L -18.0235,-9.101 L -17.982,-9.18945 L -17.9461,-9.28131 L -17.9157,-9.37659
 L -17.8908,-9.47525 L -17.8714,-9.57733 L -17.8576,-9.68282 L -17.8493,-9.7917 L -17.8465,-9.90399 L -17.8525,-10.0731
 L -17.8705,-10.2329 L -17.9004,-10.3835 L -17.9423,-10.5247 L -17.9961,-10.6567 L -18.062,-10.7794 L -18.1398,-10.8929
 L -18.2295,-10.997 L -18.3299,-11.0905 L -18.4396,-11.1716 L -18.5585,-11.2401 L -18.6868,-11.2962 L -18.8243,-11.3399
 L -18.9711,-11.371 L -19.1272,-11.3898 L -19.2925,-11.396 L -19.4579,-11.3898 L -19.6139,-11.3714 L -19.7606,-11.3406
 L -19.898,-11.2975 L -20.0261,-11.2421 L -20.1449,-11.1744 L -20.2543,-11.0943 L -20.3545,-11.002 L -20.444,-10.8987
 L -20.5216,-10.7856 L -20.5873,-10.6629 L -20.641,-10.5305 L -20.6828,-10.3884 L -20.7126,-10.2366 L -20.7305,-10.0751
 z
M -20.1335,-9.90498 L -20.1301,-10.0222 L -20.1198,-10.1327 L -20.1027,-10.2365 L -20.0788,-10.3337 L -20.048,-10.4243
 L -20.0103,-10.5082 L -19.9658,-10.5854 L -19.9145,-10.656 L -19.8567,-10.719 L -19.7931,-10.7737 L -19.7239,-10.8199
 L -19.649,-10.8577 L -19.5684,-10.8872 L -19.4821,-10.9082 L -19.3902,-10.9208 L -19.2925,-10.925 L -19.1963,-10.9207
 L -19.1056,-10.908 L -19.0204,-10.8867 L -18.9408,-10.857 L -18.8667,-10.8187 L -18.7981,-10.772 L -18.735,-10.7167
 L -18.6775,-10.653 L -18.626,-10.582 L -18.5813,-10.5046 L -18.5435,-10.4208 L -18.5125,-10.3305 L -18.4885,-10.2338
 L -18.4713,-10.1306 L -18.461,-10.021 L -18.4575,-9.90498 L -18.461,-9.78331 L -18.4712,-9.66875 L -18.4883,-9.56131
 L -18.5123,-9.461 L -18.5431,-9.36781 L -18.5807,-9.28175 L -18.6252,-9.20282 L -18.6765,-9.131 L -18.7339,-9.06726
 L -18.797,-9.01201 L -18.8659,-8.96526 L -18.9405,-8.927 L -19.0209,-8.89725 L -19.107,-8.87601 L -19.1989,-8.86325
 L -19.2965,-8.85901 L -19.391,-8.86336 L -19.4803,-8.87643 L -19.5646,-8.89824 L -19.6438,-8.92876 L -19.7178,-8.96799
 L -19.7868,-9.01595 L -19.8507,-9.07262 L -19.9095,-9.138 L -19.962,-9.21124 L -20.0075,-9.29094 L -20.046,-9.37711
 L -20.0775,-9.46976 L -20.102,-9.56886 L -20.1195,-9.67444 L -20.13,-9.78648 z
M -20.375,-20 L -20.3729,-19.9608 L -20.3668,-19.922 L -20.3566,-19.8841 L -20.3426,-19.8475 L -20.3248,-19.8125
 L -20.3034,-19.7796 L -20.2787,-19.7491 L -20.2509,-19.7213 L -20.2204,-19.6966 L -20.1875,-19.6752 L -20.1525,-19.6574
 L -20.1159,-19.6434 L -20.078,-19.6332 L -20.0392,-19.6271 L -20,-19.625 L -19.9608,-19.6271 L -19.922,-19.6332
 L -19.8841,-19.6434 L -19.8475,-19.6574 L -19.8125,-19.6752 L -19.7796,-19.6966 L -19.7491,-19.7213 L -19.7213,-19.7491
 L -19.6966,-19.7796 L -19.6752,-19.8125 L -19.6574,-19.8475 L -19.6433,-19.8841 L -19.6332,-19.922 L -19.627,-19.9608
 L -19.625,-20 L -19.625,-25.475 L -14.5,-25.475 L -14.4608,-25.4771 L -14.422,-25.4832 L -14.3841,-25.4934
 L -14.3475,-25.5074 L -14.3125,-25.5252 L -14.2796,-25.5466 L -14.2491,-25.5713 L -14.2213,-25.5991 L -14.1966,-25.6296
 L -14.1752,-25.6625 L -14.1574,-25.6975 L -14.1433,-25.7341 L -14.1332,-25.772 L -14.127,-25.8108 L -14.125,-25.85
 L -14.127,-25.8892 L -14.1332,-25.928 L -14.1433,-25.9659 L -14.1574,-26.0025 L -14.1752,-26.0375 L -14.1966,-26.0704
 L -14.2213,-26.1009 L -14.2491,-26.1287 L -14.2796,-26.1534 L -14.3125,-26.1748 L -14.3475,-26.1926 L -14.3841,-26.2066
 L -14.422,-26.2168 L -14.4608,-26.2229 L -14.5,-26.225 L -20,-26.225 L -20.0392,-26.2229 L -20.078,-26.2168
 L -20.1159,-26.2066 L -20.1525,-26.1926 L -20.1875,-26.1748 L -20.2204,-26.1534 L -20.2509,-26.1287 L -20.2787,-26.1009
 L -20.3034,-26.0704 L -20.3248,-26.0375 L -20.3426,-26.0025 L -20.3566,-25.9659 L -20.3668,-25.928 L -20.3729,-25.8892
 L -20.375,-25.85 z
M -20.2897,-0.652008 L -19.6897,-0.652008 L -19.6897,-1.72502 L -18.2257,-1.72502 L -18.2257,-2.188 L -19.6897,-2.188
 L -19.6897,-3.069 L -18.1787,-3.069 L -18.1787,-3.532 L -20.2897,-3.532 z
M -20.2897,-4.552 L -19.6897,-4.552 L -19.6897,-5.62502 L -18.2257,-5.62502 L -18.2257,-6.088 L -19.6897,-6.088
 L -19.6897,-6.96899 L -18.1787,-6.96899 L -18.1787,-7.43199 L -20.2897,-7.43199 z
M -17.45,-9.85825 L -17.4479,-9.81905 L -17.4418,-9.78029 L -17.4316,-9.74237 L -17.4176,-9.70572 L -17.3997,-9.67075
 L -17.3784,-9.63783 L -17.3537,-9.60733 L -17.3259,-9.57957 L -17.2954,-9.55487 L -17.2625,-9.53349 L -10.5798,-5.67523
 L -10.5448,-5.65741 L -10.5082,-5.64334 L -10.4703,-5.63319 L -10.4315,-5.62704 L -10.3923,-5.625 L -10.3531,-5.62704
 L -10.3143,-5.63319 L -10.2764,-5.64334 L -10.2398,-5.65741 L -10.2048,-5.67523 L -10.1719,-5.69661 L -10.1414,-5.72131
 L -10.1136,-5.74907 L -10.0889,-5.77957 L -10.0675,-5.8125 L -10.0497,-5.84747 L -10.0356,-5.88411 L -10.0255,-5.92203
 L -10.0193,-5.9608 L -10.0173,-6 L -10.0193,-6.03918 L -10.0255,-6.07796 L -10.0356,-6.11588 L -10.0497,-6.15251
 L -10.0675,-6.1875 L -10.0889,-6.22041 L -10.1136,-6.25092 L -10.1414,-6.27867 L -10.1719,-6.30338 L -10.2048,-6.32475
 L -16.8875,-10.183 L -16.9225,-10.2008 L -16.9591,-10.2149 L -16.997,-10.2251 L -17.0358,-10.2312 L -17.075,-10.2332
 L -17.1142,-10.2312 L -17.153,-10.2251 L -17.1909,-10.2149 L -17.2275,-10.2008 L -17.2625,-10.183 L -17.2954,-10.1616
 L -17.3259,-10.1369 L -17.3537,-10.1092 L -17.3784,-10.0787 L -17.3997,-10.0457 L -17.4176,-10.0108 L -17.4316,-9.97414
 L -17.4418,-9.93622 L -17.4479,-9.89745 z
M -11.5495,-18.7887 L -10.9495,-18.7887 L -10.9495,-19.8768 L -10.2475,-19.8768 L -9.58249,-18.7887 L -8.90849,-18.7887
 L -9.6825,-19.9928 L -9.61163,-20.0126 L -9.54456,-20.0371 L -9.48126,-20.0663 L -9.42174,-20.1003 L -9.36601,-20.1388
 L -9.31406,-20.1821 L -9.26588,-20.2301 L -9.2215,-20.2827 L -9.18141,-20.3393 L -9.14668,-20.3984 L -9.11729,-20.46
 L -9.09325,-20.5242 L -9.07454,-20.591 L -9.06117,-20.6604 L -9.05316,-20.7323 L -9.05049,-20.8067 L -9.05486,-20.9079
 L -9.06793,-21.0031 L -9.08972,-21.0921 L -9.12024,-21.175 L -9.15947,-21.2518 L -9.20743,-21.3225 L -9.2641,-21.3872
 L -9.3295,-21.4457 L -9.40265,-21.498 L -9.48312,-21.5433 L -9.57089,-21.5816 L -9.66599,-21.613 L -9.7684,-21.6374
 L -9.87811,-21.6548 L -9.99515,-21.6653 L -10.1195,-21.6687 L -11.5495,-21.6687 z
M -10.9495,-20.3417 L -10.9495,-21.2037 L -10.1825,-21.2037 L -10.0587,-21.1972 L -9.95149,-21.1774 L -9.86075,-21.1445
 L -9.7865,-21.0985 L -9.72874,-21.0393 L -9.68748,-20.9669 L -9.66273,-20.8814 L -9.6545,-20.7827 L -9.65652,-20.7319
 L -9.66261,-20.6841 L -9.67278,-20.6391 L -9.687,-20.597 L -9.70528,-20.5578 L -9.72762,-20.5215 L -9.75403,-20.4882
 L -9.78448,-20.4577 L -9.81889,-20.4305 L -9.85712,-20.407 L -9.89915,-20.3871 L -9.94499,-20.3707 L -9.99464,-20.358
 L -10.0481,-20.349 L -10.1054,-20.3436 L -10.1665,-20.3417 z
M -11.4402,-24.4438 L -10.9082,-24.4438 L -10.9082,-26.1897 L -10.9086,-26.233 L -10.9098,-26.2863 L -10.9116,-26.3496
 L -10.9143,-26.423 L -10.9176,-26.5064 L -10.9218,-26.5998 L -10.9266,-26.7033 L -10.9323,-26.8167 L -10.7153,-26.0507
 L -10.1992,-24.4438 L -9.77225,-24.4438 L -9.25626,-26.0507 L -9.23784,-26.11 L -9.21707,-26.1796 L -9.19395,-26.2597
 L -9.1685,-26.3502 L -9.1407,-26.4512 L -9.11057,-26.5626 L -9.07808,-26.6845 L -9.04326,-26.8167 L -9.05119,-26.6162
 L -9.05437,-26.5342 L -9.05701,-26.4645 L -9.05911,-26.407 L -9.06068,-26.3617 L -9.06174,-26.3286 L -9.06226,-26.3077
 L -9.0627,-26.2782 L -9.063,-26.2487 L -9.06319,-26.2192 L -9.06325,-26.1897 L -9.06325,-24.4438 L -8.53125,-24.4438
 L -8.53125,-27.3237 L -9.32925,-27.3237 L -9.85526,-25.6338 L -9.98326,-25.1718 L -10.0803,-25.5578 L -10.1253,-25.7138
 L -10.6373,-27.3237 L -11.4402,-27.3237 z
M -10.2332,-17.075 L -10.2312,-17.0358 L -10.2251,-16.997 L -10.2149,-16.9591 L -10.2008,-16.9225 L -10.183,-16.8875
 L -6.32475,-10.2048 L -6.30338,-10.1719 L -6.27867,-10.1414 L -6.25092,-10.1136 L -6.22041,-10.0889 L -6.1875,-10.0675
 L -6.15251,-10.0497 L -6.11588,-10.0356 L -6.07796,-10.0255 L -6.03918,-10.0193 L -6,-10.0173 L -5.9608,-10.0193
 L -5.92203,-10.0255 L -5.88411,-10.0356 L -5.84747,-10.0497 L -5.8125,-10.0675 L -5.77957,-10.0889 L -5.74907,-10.1136
 L -5.72131,-10.1414 L -5.69661,-10.1719 L -5.67523,-10.2048 L -5.65741,-10.2398 L -5.64334,-10.2764 L -5.63319,-10.3143
 L -5.62704,-10.3531 L -5.625,-10.3923 L -5.62704,-10.4315 L -5.63319,-10.4703 L -5.64334,-10.5082 L -5.65741,-10.5448
 L -5.67523,-10.5798 L -9.53349,-17.2625 L -9.55487,-17.2954 L -9.57957,-17.3259 L -9.60733,-17.3537 L -9.63783,-17.3784
 L -9.67075,-17.3997 L -9.70572,-17.4176 L -9.74237,-17.4316 L -9.78029,-17.4418 L -9.81905,-17.4479 L -9.85825,-17.45
 L -9.89745,-17.4479 L -9.93622,-17.4418 L -9.97414,-17.4316 L -10.0108,-17.4176 L -10.0457,-17.3997 L -10.0787,-17.3784
 L -10.1092,-17.3537 L -10.1369,-17.3259 L -10.1616,-17.2954 L -10.183,-17.2625 L -10.2008,-17.2275 L -10.2149,-17.1909
 L -10.2251,-17.153 L -10.2312,-17.1142 z
M -10,-0 L -9.94522,1.04528 L -9.78148,2.07912 L -9.51056,3.09017 L -9.13545,4.06737 L -8.66025,5
 L -8.09017,5.87785 L -7.43145,6.69131 L -6.69131,7.43145 L -5.87785,8.09017 L -5,8.66025 L -4.06737,9.13545
 L -3.09017,9.51056 L -2.07912,9.78148 L -1.04528,9.94522 L 0,10 L 1.04528,9.94522 L 2.07912,9.78148
 L 3.09017,9.51056 L 4.06737,9.13545 L 5,8.66025 L 5.87785,8.09017 L 6.69131,7.43145 L 7.43145,6.69131
 L 8.09017,5.87785 L 8.66025,5 L 9.13545,4.06737 L 9.51056,3.09017 L 9.78148,2.07912 L 9.94522,1.04528
 L 10,-0 L 9.94522,-1.04528 L 9.78148,-2.07912 L 9.51056,-3.09017 L 9.13545,-4.06737 L 8.66025,-5
 L 8.09017,-5.87785 L 7.43145,-6.69131 L 6.69131,-7.43145 L 5.87785,-8.09017 L 5,-8.66025 L 4.06737,-9.13545
 L 3.09017,-9.51056 L 2.07912,-9.78148 L 1.04528,-9.94522 L 0,-10 L -1.04528,-9.94522 L -2.07912,-9.78148
 L -3.09017,-9.51056 L -4.06737,-9.13545 L -5,-8.66025 L -5.87785,-8.09017 L -6.69131,-7.43145 L -7.43145,-6.69131
 L -8.09017,-5.87785 L -8.66025,-5 L -9.13545,-4.06737 L -9.51056,-3.09017 L -9.78148,-2.07912 L -9.94522,-1.04528
 z
M -8.22461,-24.4438 L -7.62561,-24.4438 L -7.37161,-25.2088 L -6.28061,-25.2088 L -6.0276,-24.4438 L -5.43361,-24.4438
 L -6.4736,-27.3237 L -7.1806,-27.3237 z
M -7.23761,-25.6598 L -7.16193,-25.878 L -7.09541,-26.0702 L -7.03806,-26.2364 L -6.98985,-26.3765 L -6.95081,-26.4906
 L -6.92091,-26.5787 L -6.90018,-26.6407 L -6.88861,-26.6767 L -6.8815,-26.6997 L -6.87466,-26.722 L -6.86812,-26.7437
 L -6.86186,-26.7647 L -6.85587,-26.7852 L -6.85017,-26.805 L -6.84474,-26.8242 L -6.8396,-26.8427 L -6.82761,-26.8867
 L -6.78461,-26.7477 L -6.6976,-26.4747 L -6.4156,-25.6598 z
M -5.21913,-25.8957 L -5.21326,-25.7194 L -5.19563,-25.5534 L -5.16626,-25.3978 L -5.12512,-25.2525 L -5.07225,-25.1175
 L -5.00763,-24.9929 L -4.93126,-24.8787 L -4.84312,-24.7748 L -4.74409,-24.6822 L -4.63501,-24.6019 L -4.51585,-24.5341
 L -4.38663,-24.4785 L -4.24734,-24.4353 L -4.09801,-24.4044 L -3.9386,-24.3859 L -3.76913,-24.3798 L -3.66968,-24.3819
 L -3.57132,-24.3883 L -3.47404,-24.3989 L -3.37788,-24.4138 L -3.28281,-24.4329 L -3.18881,-24.4563 L -3.09593,-24.4839
 L -3.00414,-24.5158 L -2.91504,-24.5516 L -2.83026,-24.5908 L -2.74979,-24.6331 L -2.67363,-24.6788 L -2.60179,-24.7276
 L -2.53426,-24.7798 L -2.47104,-24.8351 L -2.41212,-24.8938 L -2.41212,-25.9797 L -3.65913,-25.9797 L -3.65913,-25.5368
 L -2.96114,-25.5368 L -2.96114,-25.1098 L -2.99268,-25.0819 L -3.02731,-25.0553 L -3.06505,-25.0299 L -3.10588,-25.0058
 L -3.1498,-24.9829 L -3.19682,-24.9613 L -3.24693,-24.9409 L -3.30013,-24.9218 L -3.35512,-24.9046 L -3.41057,-24.8898
 L -3.46649,-24.8773 L -3.52287,-24.867 L -3.57974,-24.859 L -3.63707,-24.8533 L -3.69487,-24.8499 L -3.75313,-24.8488
 L -3.85277,-24.853 L -3.94669,-24.8658 L -4.0349,-24.8872 L -4.11739,-24.917 L -4.19414,-24.9554 L -4.2652,-25.0023
 L -4.33052,-25.0578 L -4.39014,-25.1218 L -4.4431,-25.1938 L -4.489,-25.2729 L -4.52785,-25.3592 L -4.55963,-25.4525
 L -4.58435,-25.5529 L -4.60201,-25.6604 L -4.61259,-25.775 L -4.61613,-25.8967 L -4.6127,-26.0162 L -4.60245,-26.1285
 L -4.58533,-26.2337 L -4.56139,-26.3317 L -4.53058,-26.4227 L -4.49294,-26.5065 L -4.44846,-26.5832 L -4.39713,-26.6528
 L -4.33897,-26.7146 L -4.27451,-26.7682 L -4.20372,-26.8136 L -4.12663,-26.8507 L -4.04323,-26.8796 L -3.95351,-26.9002
 L -3.85747,-26.9126 L -3.75513,-26.9167 L -3.69168,-26.915 L -3.63031,-26.91 L -3.57104,-26.9016 L -3.51389,-26.8897
 L -3.4588,-26.8746 L -3.40582,-26.856 L -3.35492,-26.8341 L -3.30612,-26.8087 L -3.25998,-26.7804 L -3.21701,-26.7488
 L -3.17722,-26.714 L -3.14062,-26.676 L -3.10722,-26.6348 L -3.07701,-26.5903 L -3.04997,-26.5426 L -3.02612,-26.4917
 L -2.47313,-26.6557 L -2.5531,-26.8273 L -2.65601,-26.976 L -2.78185,-27.1018 L -2.93063,-27.2047 L -3.10234,-27.2848
 L -3.297,-27.342 L -3.5146,-27.3763 L -3.75513,-27.3877 L -3.92697,-27.3817 L -4.0885,-27.3637 L -4.23972,-27.3336
 L -4.38063,-27.2915 L -4.51123,-27.2373 L -4.6315,-27.1712 L -4.74147,-27.093 L -4.84113,-27.0027 L -4.92972,-26.9012
 L -5.0065,-26.7892 L -5.07147,-26.6666 L -5.12463,-26.5335 L -5.16597,-26.3899 L -5.19551,-26.2357 L -5.21323,-26.071
 z
M -1.94708,-24.4438 L -1.41508,-24.4438 L -1.41508,-26.1427 L -1.41565,-26.1937 L -1.41734,-26.2487 L -1.42015,-26.3076
 L -1.42409,-26.3705 L -1.42915,-26.4374 L -1.43533,-26.5082 L -1.44266,-26.583 L -1.4511,-26.6617 L -0.204086,-24.4438
 L 0.498901,-24.4438 L 0.498901,-27.3237 L -0.0330963,-27.3237 L -0.0330963,-25.6498 L -0.0325317,-25.5856 L -0.030838,-25.5198
 L -0.0280304,-25.4521 L -0.0240936,-25.3828 L -0.0190277,-25.3116 L -0.0128326,-25.2388 L -0.00552368,-25.1641 L 0.00289917,-25.0878
 L -1.26208,-27.3237 L -1.94708,-27.3237 z
M -0.964661,-18.7887 L 1.17032,-18.7887 L 1.17032,-19.2518 L -0.36467,-19.2518 L -0.36467,-21.6687 L -0.964661,-21.6687
 z
M -0.375,-12 L -0.37294,-11.9608 L -0.366791,-11.922 L -0.356644,-11.8841 L -0.342575,-11.8475 L -0.324753,-11.8125
 L -0.303375,-11.7796 L -0.278671,-11.7491 L -0.250916,-11.7213 L -0.220413,-11.6966 L -0.1875,-11.6752 L -0.152512,-11.6574
 L -0.115875,-11.6433 L -0.0779572,-11.6332 L -0.0391846,-11.627 L 0,-11.625 L 0.0391846,-11.627 L 0.0779572,-11.6332
 L 0.115875,-11.6433 L 0.152512,-11.6574 L 0.1875,-11.6752 L 0.220413,-11.6966 L 0.250916,-11.7213 L 0.278671,-11.7491
 L 0.303375,-11.7796 L 0.324753,-11.8125 L 0.342575,-11.8475 L 0.356644,-11.8841 L 0.366791,-11.922 L 0.37294,-11.9608
 L 0.375,-12 L 0.375,-17.075 L 0.37294,-17.1142 L 0.366791,-17.153 L 0.356644,-17.1909 L 0.342575,-17.2275
 L 0.324753,-17.2625 L 0.303375,-17.2954 L 0.278671,-17.3259 L 0.250916,-17.3537 L 0.220413,-17.3784 L 0.1875,-17.3997
 L 0.152512,-17.4176 L 0.115875,-17.4316 L 0.0779572,-17.4418 L 0.0391846,-17.4479 L 0,-17.45 L -0.0391846,-17.4479
 L -0.0779572,-17.4418 L -0.115875,-17.4316 L -0.152512,-17.4176 L -0.1875,-17.3997 L -0.220413,-17.3784 L -0.250916,-17.3537
 L -0.278671,-17.3259 L -0.303375,-17.2954 L -0.324753,-17.2625 L -0.342575,-17.2275 L -0.356644,-17.1909 L -0.366791,-17.153
 L -0.37294,-17.1142 L -0.375,-17.075 z
M 0.991379,-24.4438 L 3.32538,-24.4438 L 3.32538,-24.9068 L 1.59137,-24.9068 L 1.59137,-25.6448 L 3.11838,-25.6448
 L 3.11838,-26.1077 L 1.59137,-26.1077 L 1.59137,-26.8607 L 3.24237,-26.8607 L 3.24237,-27.3237 L 0.991379,-27.3237
 z
M 3.47424,-26.8607 L 4.39824,-26.8607 L 4.39824,-24.4438 L 4.99724,-24.4438 L 4.99724,-26.8607 L 5.92323,-26.8607
 L 5.92323,-27.3237 L 3.47424,-27.3237 z
M 5.625,-10.3923 L 5.62704,-10.3531 L 5.63319,-10.3143 L 5.64334,-10.2764 L 5.65741,-10.2398 L 5.67523,-10.2048
 L 5.69661,-10.1719 L 5.72131,-10.1414 L 5.74907,-10.1136 L 5.77957,-10.0889 L 5.8125,-10.0675 L 5.84747,-10.0497
 L 5.88411,-10.0356 L 5.92203,-10.0255 L 5.9608,-10.0193 L 6,-10.0173 L 6.03918,-10.0193 L 6.07796,-10.0255
 L 6.11588,-10.0356 L 6.15251,-10.0497 L 6.1875,-10.0675 L 6.22041,-10.0889 L 6.25092,-10.1136 L 6.27867,-10.1414
 L 6.30338,-10.1719 L 6.32475,-10.2048 L 10.183,-16.8875 L 10.2008,-16.9225 L 10.2149,-16.9591 L 10.2251,-16.997
 L 10.2312,-17.0358 L 10.2332,-17.075 L 10.2312,-17.1142 L 10.2251,-17.153 L 10.2149,-17.1909 L 10.2008,-17.2275
 L 10.183,-17.2625 L 10.1616,-17.2954 L 10.1369,-17.3259 L 10.1092,-17.3537 L 10.0787,-17.3784 L 10.0457,-17.3997
 L 10.0108,-17.4176 L 9.97414,-17.4316 L 9.93622,-17.4418 L 9.89745,-17.4479 L 9.85825,-17.45 L 9.81905,-17.4479
 L 9.78029,-17.4418 L 9.74237,-17.4316 L 9.70572,-17.4176 L 9.67075,-17.3997 L 9.63783,-17.3784 L 9.60733,-17.3537
 L 9.57957,-17.3259 L 9.55487,-17.2954 L 9.53349,-17.2625 L 5.67523,-10.5798 L 5.65741,-10.5448 L 5.64334,-10.5082
 L 5.63319,-10.4703 L 5.62704,-10.4315 z
M 6.01035,-25.8957 L 6.01633,-25.7242 L 6.03429,-25.5619 L 6.06421,-25.4091 L 6.10609,-25.2655 L 6.15996,-25.1313
 L 6.22578,-25.0064 L 6.30359,-24.8909 L 6.39334,-24.7848 L 6.49365,-24.6898 L 6.60304,-24.6076 L 6.72153,-24.538
 L 6.84909,-24.481 L 6.98576,-24.4367 L 7.13153,-24.4051 L 7.28639,-24.3861 L 7.45035,-24.3798 L 7.55838,-24.3826
 L 7.66298,-24.3912 L 7.76413,-24.4055 L 7.86185,-24.4255 L 7.95613,-24.4512 L 8.04697,-24.4827 L 8.13438,-24.5199
 L 8.21835,-24.5628 L 8.2982,-24.6113 L 8.37329,-24.6649 L 8.44359,-24.7235 L 8.50909,-24.7873 L 8.56984,-24.856
 L 8.62578,-24.9299 L 8.67696,-25.0088 L 8.72334,-25.0928 L 8.76483,-25.1812 L 8.80078,-25.2731 L 8.83121,-25.3683
 L 8.85609,-25.467 L 8.87546,-25.5691 L 8.88928,-25.6746 L 8.89758,-25.7835 L 8.90034,-25.8957 L 8.89436,-26.0649
 L 8.8764,-26.2247 L 8.84648,-26.3752 L 8.8046,-26.5165 L 8.75073,-26.6485 L 8.68491,-26.7712 L 8.60712,-26.8846
 L 8.51735,-26.9887 L 8.41696,-27.0823 L 8.30728,-27.1633 L 8.18834,-27.2319 L 8.0601,-27.288 L 7.92258,-27.3316
 L 7.77579,-27.3628 L 7.61971,-27.3815 L 7.45435,-27.3877 L 7.289,-27.3816 L 7.13298,-27.3631 L 6.98625,-27.3323
 L 6.84885,-27.2892 L 6.72075,-27.2338 L 6.60197,-27.1661 L 6.49251,-27.0861 L 6.39235,-26.9937 L 6.30281,-26.8904
 L 6.22522,-26.7774 L 6.15956,-26.6546 L 6.10585,-26.5222 L 6.06407,-26.3802 L 6.03423,-26.2284 L 6.01631,-26.0669
 z
M 6.61334,-25.8967 L 6.61678,-26.0139 L 6.62703,-26.1244 L 6.64415,-26.2283 L 6.66809,-26.3255 L 6.6989,-26.416
 L 6.73654,-26.4999 L 6.78102,-26.5772 L 6.83235,-26.6477 L 6.8902,-26.7108 L 6.95372,-26.7654 L 7.02295,-26.8117
 L 7.09785,-26.8495 L 7.17844,-26.8789 L 7.26472,-26.8999 L 7.35669,-26.9125 L 7.45435,-26.9167 L 7.55058,-26.9125
 L 7.64128,-26.8997 L 7.72646,-26.8785 L 7.80609,-26.8487 L 7.8802,-26.8105 L 7.94879,-26.7637 L 8.01183,-26.7085
 L 8.06935,-26.6447 L 8.12091,-26.5738 L 8.1656,-26.4964 L 8.20341,-26.4125 L 8.23434,-26.3222 L 8.25841,-26.2255
 L 8.2756,-26.1224 L 8.2859,-26.0128 L 8.28935,-25.8967 L 8.28592,-25.7751 L 8.27567,-25.6605 L 8.25854,-25.5531
 L 8.2346,-25.4528 L 8.2038,-25.3596 L 8.16615,-25.2735 L 8.12167,-25.1946 L 8.07034,-25.1228 L 8.01297,-25.059
 L 7.94984,-25.0038 L 7.88097,-24.957 L 7.80635,-24.9188 L 7.72597,-24.889 L 7.63985,-24.8678 L 7.54797,-24.855
 L 7.45035,-24.8508 L 7.3559,-24.8551 L 7.26654,-24.8682 L 7.18227,-24.89 L 7.1031,-24.9205 L 7.02902,-24.9597
 L 6.96004,-25.0077 L 6.89615,-25.0644 L 6.83734,-25.1298 L 6.78485,-25.203 L 6.73935,-25.2827 L 6.70085,-25.3689
 L 6.66934,-25.4615 L 6.64485,-25.5606 L 6.62735,-25.6662 L 6.61685,-25.7782 z
M 6.13625,-18.7887 L 7.56824,-18.7887 L 7.69467,-18.7921 L 7.814,-18.8022 L 7.92618,-18.8191 L 8.03123,-18.8427
 L 8.12918,-18.8731 L 8.21999,-18.9102 L 8.30368,-18.9541 L 8.38023,-19.0047 L 8.44891,-19.0616 L 8.50842,-19.1239
 L 8.55879,-19.1919 L 8.59999,-19.2655 L 8.63203,-19.3447 L 8.65492,-19.4294 L 8.66866,-19.5198 L 8.67323,-19.6158
 L 8.67039,-19.6882 L 8.66187,-19.7569 L 8.64764,-19.8221 L 8.62773,-19.8835 L 8.60214,-19.9413 L 8.57086,-19.9954
 L 8.53389,-20.0459 L 8.49124,-20.0927 L 8.44316,-20.1356 L 8.38992,-20.1741 L 8.33153,-20.2082 L 8.26799,-20.238
 L 8.19928,-20.2634 L 8.12543,-20.2845 L 8.04642,-20.3013 L 7.96223,-20.3137 L 8.02927,-20.3302 L 8.09186,-20.35
 L 8.15002,-20.3732 L 8.20374,-20.3997 L 8.25302,-20.4297 L 8.29787,-20.463 L 8.33827,-20.4997 L 8.37424,-20.5397
 L 8.40588,-20.5829 L 8.4333,-20.6284 L 8.4565,-20.6763 L 8.47549,-20.7265 L 8.49025,-20.779 L 8.50079,-20.8339
 L 8.50713,-20.8912 L 8.50923,-20.9507 L 8.50504,-21.0368 L 8.49243,-21.1174 L 8.47141,-21.1925 L 8.44199,-21.2622
 L 8.40416,-21.3265 L 8.35793,-21.3854 L 8.30328,-21.4388 L 8.24023,-21.4867 L 8.16899,-21.5294 L 8.08974,-21.5664
 L 8.00249,-21.5976 L 7.90724,-21.6232 L 7.80399,-21.6431 L 7.69273,-21.6574 L 7.57349,-21.6659 L 7.44624,-21.6687
 L 6.13625,-21.6687 z
M 6.73624,-19.2337 L 6.73624,-20.0737 L 7.49524,-20.0737 L 7.63048,-20.0673 L 7.74768,-20.048 L 7.84685,-20.0158
 L 7.92799,-19.9707 L 7.9911,-19.9128 L 8.03618,-19.842 L 8.06322,-19.7583 L 8.07224,-19.6617 L 8.07016,-19.6099
 L 8.06392,-19.5614 L 8.05353,-19.5163 L 8.03899,-19.4745 L 8.02028,-19.4361 L 7.99742,-19.4009 L 7.97041,-19.3692
 L 7.93924,-19.3407 L 7.90356,-19.3157 L 7.86305,-19.2939 L 7.81769,-19.2755 L 7.76749,-19.2605 L 7.71245,-19.2488
 L 7.65256,-19.2404 L 7.58781,-19.2354 L 7.51823,-19.2337 z
M 6.73624,-20.5167 L 6.73624,-21.2237 L 7.41924,-21.2237 L 7.47765,-21.2225 L 7.53236,-21.2187 L 7.58339,-21.2123
 L 7.63074,-21.2035 L 7.67439,-21.1921 L 7.71437,-21.1782 L 7.75064,-21.1617 L 7.78323,-21.1427 L 7.81207,-21.1207
 L 7.83705,-21.0952 L 7.85818,-21.0662 L 7.87549,-21.0337 L 7.88895,-20.9977 L 7.89854,-20.9582 L 7.90431,-20.9152
 L 7.90623,-20.8687 L 7.90443,-20.8261 L 7.89905,-20.7862 L 7.89006,-20.7491 L 7.87749,-20.7147 L 7.86131,-20.6831
 L 7.84155,-20.6542 L 7.81819,-20.6281 L 7.79124,-20.6047 L 7.76033,-20.5841 L 7.72511,-20.5662 L 7.68558,-20.5511
 L 7.64174,-20.5387 L 7.59358,-20.5291 L 7.54111,-20.5222 L 7.48433,-20.5181 L 7.42323,-20.5167 z
M 8.96771,-20.2407 L 8.97369,-20.0692 L 8.99165,-19.9069 L 9.02158,-19.754 L 9.06346,-19.6105 L 9.11732,-19.4763
 L 9.18315,-19.3514 L 9.26096,-19.2359 L 9.35071,-19.1297 L 9.45102,-19.0348 L 9.56041,-18.9526 L 9.67889,-18.8829
 L 9.80646,-18.826 L 9.94313,-18.7817 L 10.0889,-18.7501 L 10.2438,-18.7311 L 10.4077,-18.7247 L 10.5157,-18.7276
 L 10.6203,-18.7362 L 10.7215,-18.7505 L 10.8192,-18.7705 L 10.9135,-18.7962 L 11.0043,-18.8277 L 11.0918,-18.8649
 L 11.1757,-18.9077 L 11.2556,-18.9563 L 11.3307,-19.0099 L 11.401,-19.0685 L 11.4665,-19.1322 L 11.5272,-19.201
 L 11.5831,-19.2749 L 11.6343,-19.3538 L 11.6807,-19.4377 L 11.7222,-19.5262 L 11.7581,-19.6181 L 11.7886,-19.7133
 L 11.8135,-19.812 L 11.8328,-19.9141 L 11.8466,-20.0196 L 11.8549,-20.1284 L 11.8577,-20.2407 L 11.8517,-20.4099
 L 11.8338,-20.5697 L 11.8038,-20.7202 L 11.762,-20.8615 L 11.7081,-20.9935 L 11.6423,-21.1162 L 11.5645,-21.2296
 L 11.4747,-21.3337 L 11.3743,-21.4272 L 11.2646,-21.5083 L 11.1457,-21.5769 L 11.0175,-21.633 L 10.8799,-21.6766
 L 10.7332,-21.7078 L 10.5771,-21.7265 L 10.4117,-21.7327 L 10.2464,-21.7266 L 10.0903,-21.7081 L 9.94362,-21.6773
 L 9.80621,-21.6342 L 9.67812,-21.5788 L 9.55934,-21.5111 L 9.44987,-21.4311 L 9.34972,-21.3387 L 9.26018,-21.2354
 L 9.18259,-21.1224 L 9.11693,-20.9996 L 9.06322,-20.8672 L 9.02144,-20.7251 L 8.99159,-20.5734 L 8.97368,-20.4119
 z
M 9.57071,-20.2417 L 9.57414,-20.3589 L 9.5844,-20.4694 L 9.60152,-20.5733 L 9.62546,-20.6705 L 9.65627,-20.761
 L 9.69391,-20.8449 L 9.73839,-20.9221 L 9.78972,-20.9927 L 9.84756,-21.0558 L 9.91109,-21.1104 L 9.98032,-21.1567
 L 10.0552,-21.1945 L 10.1358,-21.2239 L 10.2221,-21.2449 L 10.3141,-21.2575 L 10.4117,-21.2617 L 10.5079,-21.2575
 L 10.5986,-21.2447 L 10.6838,-21.2235 L 10.7635,-21.1937 L 10.8376,-21.1555 L 10.9062,-21.1087 L 10.9692,-21.0535
 L 11.0267,-20.9897 L 11.0783,-20.9188 L 11.123,-20.8414 L 11.1608,-20.7575 L 11.1917,-20.6672 L 11.2158,-20.5705
 L 11.233,-20.4674 L 11.2433,-20.3578 L 11.2467,-20.2417 L 11.2433,-20.1201 L 11.233,-20.0055 L 11.2159,-19.8981
 L 11.192,-19.7977 L 11.1612,-19.7046 L 11.1235,-19.6185 L 11.079,-19.5396 L 11.0277,-19.4677 L 10.9703,-19.404
 L 10.9072,-19.3488 L 10.8383,-19.302 L 10.7637,-19.2637 L 10.6833,-19.234 L 10.5972,-19.2128 L 10.5053,-19.2
 L 10.4077,-19.1958 L 10.3133,-19.2001 L 10.2239,-19.2132 L 10.1396,-19.235 L 10.0605,-19.2655 L 9.98639,-19.3047
 L 9.9174,-19.3527 L 9.85352,-19.4094 L 9.79471,-19.4747 L 9.74222,-19.548 L 9.69672,-19.6277 L 9.65822,-19.7139
 L 9.62671,-19.8065 L 9.60222,-19.9056 L 9.58472,-20.0112 L 9.57422,-20.1232 z
M 9.12439,-25.1788 L 9.15013,-25.0812 L 9.18289,-24.9901 L 9.22264,-24.9053 L 9.26939,-24.827 L 9.32314,-24.7551
 L 9.38388,-24.6896 L 9.45163,-24.6305 L 9.52638,-24.5778 L 9.60834,-24.5314 L 9.69769,-24.4911 L 9.79446,-24.4571
 L 9.89864,-24.4293 L 10.0102,-24.4076 L 10.1292,-24.3921 L 10.2556,-24.3829 L 10.3894,-24.3798 L 10.5356,-24.3833
 L 10.6727,-24.3939 L 10.8007,-24.4117 L 10.9196,-24.4365 L 11.0295,-24.4684 L 11.1302,-24.5074 L 11.2218,-24.5536
 L 11.3044,-24.6068 L 11.3775,-24.6667 L 11.4409,-24.733 L 11.4945,-24.8056 L 11.5384,-24.8845 L 11.5725,-24.9698
 L 11.5969,-25.0614 L 11.6115,-25.1594 L 11.6164,-25.2638 L 11.6155,-25.3086 L 11.6129,-25.3521 L 11.6087,-25.3944
 L 11.6026,-25.4353 L 11.5949,-25.4748 L 11.5854,-25.5131 L 11.5743,-25.5501 L 11.5614,-25.5858 L 11.5469,-25.6201
 L 11.5308,-25.6533 L 11.5132,-25.6853 L 11.4941,-25.716 L 11.4735,-25.7455 L 11.4513,-25.7738 L 11.4276,-25.8009
 L 11.4024,-25.8268 L 11.3755,-25.8516 L 11.3462,-25.8756 L 11.3146,-25.8988 L 11.2806,-25.9212 L 11.2443,-25.9428
 L 11.2057,-25.9636 L 11.1647,-25.9836 L 11.1214,-26.0027 L 11.0735,-26.022 L 11.0182,-26.0416 L 10.9556,-26.0616
 L 10.8856,-26.082 L 10.8083,-26.1028 L 10.7237,-26.124 L 10.6317,-26.1457 L 10.5324,-26.1677 L 10.449,-26.1866
 L 10.373,-26.2046 L 10.3043,-26.2218 L 10.2429,-26.2382 L 10.1888,-26.2538 L 10.142,-26.2686 L 10.1025,-26.2826
 L 10.0704,-26.2957 L 10.043,-26.3088 L 10.0173,-26.3225 L 9.99338,-26.3369 L 9.97113,-26.352 L 9.95062,-26.3677
 L 9.93182,-26.3841 L 9.91475,-26.4011 L 9.89938,-26.4187 L 9.88579,-26.4376 L 9.87401,-26.4578 L 9.86404,-26.4793
 L 9.85588,-26.502 L 9.84955,-26.526 L 9.84502,-26.5513 L 9.8423,-26.5779 L 9.84138,-26.6057 L 9.84988,-26.6894
 L 9.87538,-26.7619 L 9.91789,-26.8233 L 9.97739,-26.8735 L 10.0539,-26.9125 L 10.1474,-26.9404 L 10.2579,-26.9572
 L 10.3854,-26.9627 L 10.4475,-26.9614 L 10.506,-26.9574 L 10.5607,-26.9506 L 10.6116,-26.9412 L 10.6589,-26.9291
 L 10.7025,-26.9144 L 10.7423,-26.8969 L 10.7784,-26.8767 L 10.8112,-26.8539 L 10.8411,-26.8284 L 10.8682,-26.8003
 L 10.8924,-26.7695 L 10.9137,-26.736 L 10.9321,-26.6999 L 10.9477,-26.6612 L 10.9604,-26.6197 L 11.5414,-26.6957
 L 11.5192,-26.7852 L 11.491,-26.8681 L 11.4569,-26.9443 L 11.4169,-27.014 L 11.3709,-27.0771 L 11.319,-27.1336
 L 11.2612,-27.1835 L 11.1974,-27.2267 L 11.1265,-27.2645 L 11.0473,-27.2972 L 10.9597,-27.3249 L 10.8639,-27.3475
 L 10.7597,-27.3651 L 10.6473,-27.3777 L 10.5265,-27.3852 L 10.3974,-27.3877 L 10.2625,-27.3844 L 10.1359,-27.3746
 L 10.0175,-27.3581 L 9.90739,-27.335 L 9.80551,-27.3053 L 9.71188,-27.2691 L 9.62651,-27.2262 L 9.54939,-27.1767
 L 9.48119,-27.1213 L 9.42207,-27.0601 L 9.37206,-26.9929 L 9.33113,-26.92 L 9.29932,-26.8412 L 9.27658,-26.7566
 L 9.26294,-26.6661 L 9.25839,-26.5697 L 9.259,-26.5315 L 9.26082,-26.4944 L 9.26387,-26.4583 L 9.26814,-26.4232
 L 9.27362,-26.3893 L 9.28032,-26.3564 L 9.28825,-26.3245 L 9.29739,-26.2937 L 9.30788,-26.2642 L 9.31932,-26.2357
 L 9.33174,-26.2081 L 9.34514,-26.1815 L 9.3595,-26.1558 L 9.37482,-26.1312 L 9.39113,-26.1075 L 9.40839,-26.0847
 L 9.42661,-26.0629 L 9.44576,-26.0418 L 9.46585,-26.0215 L 9.48689,-26.002 L 9.50885,-25.9833 L 9.53177,-25.9653
 L 9.5556,-25.9481 L 9.58038,-25.9317 L 9.60626,-25.9162 L 9.63289,-25.9012 L 9.66026,-25.8867 L 9.68839,-25.8727
 L 9.71725,-25.8592 L 9.74689,-25.8463 L 9.77727,-25.8338 L 9.80838,-25.8218 L 9.84294,-25.8098 L 9.88358,-25.7968
 L 9.93031,-25.7829 L 9.98314,-25.768 L 10.0421,-25.7521 L 10.1071,-25.7353 L 10.1782,-25.7175 L 10.2554,-25.6988
 L 10.3446,-25.6799 L 10.4263,-25.6617 L 10.5005,-25.6442 L 10.5671,-25.6275 L 10.6263,-25.6115 L 10.6778,-25.5962
 L 10.7219,-25.5816 L 10.7584,-25.5678 L 10.7902,-25.5538 L 10.8202,-25.5391 L 10.8483,-25.5235 L 10.8746,-25.507
 L 10.8991,-25.4897 L 10.9217,-25.4716 L 10.9425,-25.4526 L 10.9614,-25.4328 L 10.9783,-25.4118 L 10.9929,-25.3896
 L 11.0053,-25.366 L 11.0154,-25.341 L 11.0233,-25.3147 L 11.0289,-25.2871 L 11.0323,-25.2581 L 11.0334,-25.2278
 L 11.0236,-25.1342 L 10.9942,-25.0532 L 10.9452,-24.9846 L 10.8766,-24.9285 L 10.7885,-24.8849 L 10.6807,-24.8537
 L 10.5533,-24.835 L 10.4064,-24.8288 L 10.3327,-24.8304 L 10.2631,-24.8354 L 10.1977,-24.8437 L 10.1364,-24.8553
 L 10.0792,-24.8702 L 10.0261,-24.8884 L 9.9772,-24.9099 L 9.93239,-24.9348 L 9.89162,-24.9633 L 9.85432,-24.9958
 L 9.8205,-25.0324 L 9.79013,-25.073 L 9.76324,-25.1177 L 9.73982,-25.1663 L 9.71986,-25.219 L 9.70338,-25.2758
 z
M 10.0173,-6 L 10.0193,-5.9608 L 10.0255,-5.92203 L 10.0356,-5.88411 L 10.0497,-5.84747 L 10.0675,-5.8125
 L 10.0889,-5.77957 L 10.1136,-5.74907 L 10.1414,-5.72131 L 10.1719,-5.69661 L 10.2048,-5.67523 L 10.2398,-5.65741
 L 10.2764,-5.64334 L 10.3143,-5.63319 L 10.3531,-5.62704 L 10.3923,-5.625 L 10.4315,-5.62704 L 10.4703,-5.63319
 L 10.5082,-5.64334 L 10.5448,-5.65741 L 10.5798,-5.67523 L 17.2625,-9.53349 L 17.2954,-9.55487 L 17.3259,-9.57957
 L 17.3537,-9.60733 L 17.3784,-9.63783 L 17.3997,-9.67075 L 17.4176,-9.70572 L 17.4316,-9.74237 L 17.4418,-9.78029
 L 17.4479,-9.81905 L 17.45,-9.85825 L 17.4479,-9.89745 L 17.4418,-9.93622 L 17.4316,-9.97414 L 17.4176,-10.0108
 L 17.3997,-10.0457 L 17.3784,-10.0787 L 17.3537,-10.1092 L 17.3259,-10.1369 L 17.2954,-10.1616 L 17.2625,-10.183
 L 17.2275,-10.2008 L 17.1909,-10.2149 L 17.153,-10.2251 L 17.1142,-10.2312 L 17.075,-10.2332 L 17.0358,-10.2312
 L 16.997,-10.2251 L 16.9591,-10.2149 L 16.9225,-10.2008 L 16.8875,-10.183 L 10.2048,-6.32475 L 10.1719,-6.30338
 L 10.1414,-6.27867 L 10.1136,-6.25092 L 10.0889,-6.22041 L 10.0675,-6.1875 L 10.0497,-6.15251 L 10.0356,-6.11588
 L 10.0255,-6.07796 L 10.0193,-6.03918 z
M 12.0088,-21.2057 L 12.9328,-21.2057 L 12.9328,-18.7887 L 13.5318,-18.7887 L 13.5318,-21.2057 L 14.4577,-21.2057
 L 14.4577,-21.6687 L 12.0088,-21.6687 z
M 14.125,-25.85 L 14.127,-25.8108 L 14.1332,-25.772 L 14.1433,-25.7341 L 14.1574,-25.6975 L 14.1752,-25.6625
 L 14.1966,-25.6296 L 14.2213,-25.5991 L 14.2491,-25.5713 L 14.2796,-25.5466 L 14.3125,-25.5252 L 14.3475,-25.5074
 L 14.3841,-25.4934 L 14.422,-25.4832 L 14.4608,-25.4771 L 14.5,-25.475 L 19.625,-25.475 L 19.625,-20
 L 19.627,-19.9608 L 19.6332,-19.922 L 19.6433,-19.8841 L 19.6574,-19.8475 L 19.6752,-19.8125 L 19.6966,-19.7796
 L 19.7213,-19.7491 L 19.7491,-19.7213 L 19.7796,-19.6966 L 19.8125,-19.6752 L 19.8475,-19.6574 L 19.8841,-19.6434
 L 19.922,-19.6332 L 19.9608,-19.6271 L 20,-19.625 L 20.0392,-19.6271 L 20.078,-19.6332 L 20.1159,-19.6434
 L 20.1525,-19.6574 L 20.1875,-19.6752 L 20.2204,-19.6966 L 20.2509,-19.7213 L 20.2787,-19.7491 L 20.3034,-19.7796
 L 20.3248,-19.8125 L 20.3426,-19.8475 L 20.3566,-19.8841 L 20.3668,-19.922 L 20.3729,-19.9608 L 20.375,-20
 L 20.375,-25.85 L 20.3729,-25.8892 L 20.3668,-25.928 L 20.3566,-25.9659 L 20.3426,-26.0025 L 20.3248,-26.0375
 L 20.3034,-26.0704 L 20.2787,-26.1009 L 20.2509,-26.1287 L 20.2204,-26.1534 L 20.1875,-26.1748 L 20.1525,-26.1926
 L 20.1159,-26.2066 L 20.078,-26.2168 L 20.0392,-26.2229 L 20,-26.225 L 14.5,-26.225 L 14.4608,-26.2229
 L 14.422,-26.2168 L 14.3841,-26.2066 L 14.3475,-26.1926 L 14.3125,-26.1748 L 14.2796,-26.1534 L 14.2491,-26.1287
 L 14.2213,-26.1009 L 14.1966,-26.0704 L 14.1752,-26.0375 L 14.1574,-26.0025 L 14.1433,-25.9659 L 14.1332,-25.928
 L 14.127,-25.8892 z
M 14.7251,-18.7887 L 15.3251,-18.7887 L 15.3251,-20.0208 L 16.5721,-20.0208 L 16.5721,-18.7887 L 17.1711,-18.7887
 L 17.1711,-21.6687 L 16.5721,-21.6687 L 16.5721,-20.5167 L 15.3251,-20.5167 L 15.3251,-21.6687 L 14.7251,-21.6687
 z
M 17.9598,-0.652008 L 18.5588,-0.652008 L 18.8128,-1.41702 L 19.9037,-1.41702 L 20.1568,-0.652008 L 20.7507,-0.652008
 L 19.7108,-3.532 L 19.0038,-3.532 z
M 18.9468,-1.86801 L 19.0224,-2.08623 L 19.089,-2.27844 L 19.1463,-2.44461 L 19.1945,-2.58475 L 19.2336,-2.69885
 L 19.2635,-2.78694 L 19.2842,-2.84898 L 19.2958,-2.88499 L 19.3029,-2.90794 L 19.3097,-2.93025 L 19.3163,-2.95193
 L 19.3225,-2.97301 L 19.3285,-2.99344 L 19.3342,-3.01324 L 19.3396,-3.03244 L 19.3448,-3.05099 L 19.3568,-3.095
 L 19.3997,-2.95599 L 19.4868,-2.683 L 19.7688,-1.86801 z
M 18.0881,-9.187 L 18.1138,-9.08946 L 18.1466,-8.99832 L 18.1863,-8.91357 L 18.2331,-8.83525 L 18.2868,-8.76334
 L 18.3476,-8.69781 L 18.4153,-8.6387 L 18.4901,-8.586 L 18.572,-8.5396 L 18.6614,-8.49937 L 18.7581,-8.46535
 L 18.8623,-8.4375 L 18.9739,-8.41585 L 19.0929,-8.40038 L 19.2193,-8.3911 L 19.3531,-8.388 L 19.4993,-8.39156
 L 19.6364,-8.40219 L 19.7644,-8.41992 L 19.8833,-8.44475 L 19.9931,-8.47667 L 20.0939,-8.51569 L 20.1855,-8.5618
 L 20.2681,-8.61501 L 20.3412,-8.67493 L 20.4046,-8.7412 L 20.4582,-8.8138 L 20.5021,-8.89275 L 20.5362,-8.97806
 L 20.5606,-9.06969 L 20.5752,-9.16768 L 20.5801,-9.272 L 20.5792,-9.31685 L 20.5766,-9.36038 L 20.5723,-9.4026
 L 20.5663,-9.4435 L 20.5586,-9.48309 L 20.5491,-9.52138 L 20.5379,-9.55835 L 20.5251,-9.59401 L 20.5105,-9.62839
 L 20.4945,-9.66156 L 20.4769,-9.69351 L 20.4578,-9.72426 L 20.4372,-9.75377 L 20.415,-9.78206 L 20.3913,-9.80914
 L 20.3661,-9.83501 L 20.3391,-9.85983 L 20.3099,-9.88387 L 20.2783,-9.90709 L 20.2443,-9.92949 L 20.208,-9.95108
 L 20.1694,-9.97186 L 20.1284,-9.99184 L 20.0851,-10.011 L 20.0371,-10.0302 L 19.9819,-10.0498 L 19.9193,-10.0698
 L 19.8493,-10.0902 L 19.772,-10.1111 L 19.6874,-10.1323 L 19.5954,-10.1539 L 19.4961,-10.176 L 19.4127,-10.1948
 L 19.3367,-10.2129 L 19.268,-10.2301 L 19.2066,-10.2465 L 19.1525,-10.2621 L 19.1057,-10.2769 L 19.0662,-10.2908
 L 19.0341,-10.304 L 19.0067,-10.3171 L 18.981,-10.3308 L 18.9571,-10.3452 L 18.9348,-10.3602 L 18.9143,-10.3759
 L 18.8955,-10.3923 L 18.8784,-10.4093 L 18.8631,-10.427 L 18.8495,-10.4459 L 18.8377,-10.466 L 18.8277,-10.4875
 L 18.8196,-10.5102 L 18.8132,-10.5343 L 18.8087,-10.5596 L 18.806,-10.5861 L 18.8051,-10.614 L 18.8136,-10.6977
 L 18.8391,-10.7702 L 18.8816,-10.8315 L 18.9411,-10.8817 L 19.0176,-10.9208 L 19.1111,-10.9487 L 19.2216,-10.9654
 L 19.3491,-10.971 L 19.4112,-10.9697 L 19.4696,-10.9656 L 19.5243,-10.9589 L 19.5753,-10.9495 L 19.6226,-10.9374
 L 19.6661,-10.9226 L 19.7059,-10.9052 L 19.7421,-10.885 L 19.7749,-10.8622 L 19.8048,-10.8367 L 19.8319,-10.8085
 L 19.856,-10.7777 L 19.8774,-10.7443 L 19.8958,-10.7082 L 19.9114,-10.6694 L 19.9241,-10.628 L 20.5051,-10.704
 L 20.4828,-10.7934 L 20.4547,-10.8763 L 20.4206,-10.9526 L 20.3806,-11.0222 L 20.3346,-11.0853 L 20.2827,-11.1418
 L 20.2248,-11.1917 L 20.1611,-11.235 L 20.0901,-11.2727 L 20.0109,-11.3054 L 19.9234,-11.3331 L 19.8276,-11.3557
 L 19.7234,-11.3734 L 19.6109,-11.3859 L 19.4901,-11.3935 L 19.3611,-11.396 L 19.2262,-11.3927 L 19.0996,-11.3828
 L 18.9812,-11.3663 L 18.8711,-11.3432 L 18.7692,-11.3136 L 18.6756,-11.2773 L 18.5902,-11.2344 L 18.5131,-11.185
 L 18.4449,-11.1296 L 18.3858,-11.0683 L 18.3357,-11.0012 L 18.2948,-10.9282 L 18.263,-10.8494 L 18.2403,-10.7648
 L 18.2266,-10.6743 L 18.2221,-10.578 L 18.2227,-10.5398 L 18.2245,-10.5026 L 18.2276,-10.4665 L 18.2318,-10.4315
 L 18.2373,-10.3975 L 18.244,-10.3646 L 18.2519,-10.3328 L 18.2611,-10.302 L 18.2716,-10.2725 L 18.283,-10.2439
 L 18.2954,-10.2164 L 18.3088,-10.1897 L 18.3232,-10.1641 L 18.3385,-10.1394 L 18.3548,-10.1157 L 18.3721,-10.093
 L 18.3903,-10.0711 L 18.4094,-10.05 L 18.4295,-10.0298 L 18.4506,-10.0102 L 18.4725,-9.9915 L 18.4955,-9.97356
 L 18.5193,-9.95638 L 18.5441,-9.93999 L 18.5699,-9.92448 L 18.5966,-9.90948 L 18.6239,-9.89499 L 18.6521,-9.88098
 L 18.6809,-9.86749 L 18.7106,-9.85451 L 18.741,-9.84201 L 18.7721,-9.83 L 18.8066,-9.81802 L 18.8473,-9.80507
 L 18.894,-9.79114 L 18.9468,-9.77626 L 19.0057,-9.76039 L 19.0708,-9.74356 L 19.1419,-9.72577 L 19.2191,-9.707
 L 19.3083,-9.68811 L 19.39,-9.66994 L 19.4642,-9.65248 L 19.5308,-9.63576 L 19.5899,-9.61974 L 19.6415,-9.60445
 L 19.6855,-9.58986 L 19.7221,-9.576 L 19.7539,-9.56209 L 19.7839,-9.54732 L 19.812,-9.53171 L 19.8383,-9.51526
 L 19.8628,-9.49796 L 19.8854,-9.47981 L 19.9061,-9.46083 L 19.925,-9.44101 L 19.9419,-9.42007 L 19.9566,-9.39781
 L 19.9689,-9.37421 L 19.979,-9.34926 L 19.9869,-9.32295 L 19.9926,-9.29532 L 19.9959,-9.26633 L 19.9971,-9.23601
 L 19.9873,-9.14249 L 19.9579,-9.06145 L 19.9089,-8.99286 L 19.8403,-8.93675 L 19.7521,-8.89311 L 19.6444,-8.86194
 L 19.517,-8.84323 L 19.3701,-8.83701 L 19.2964,-8.83865 L 19.2268,-8.84363 L 19.1614,-8.85191 L 19.1001,-8.86351
 L 19.0429,-8.8784 L 18.9898,-8.89662 L 18.9409,-8.91817 L 18.8961,-8.94301 L 18.8553,-8.97151 L 18.818,-9.00406
 L 18.7842,-9.04065 L 18.7538,-9.08125 L 18.7269,-9.1259 L 18.7035,-9.17456 L 18.6835,-9.22726 L 18.6671,-9.284
 z
M 18.1293,4.73099 L 19.0533,4.73099 L 19.0533,7.14798 L 19.6523,7.14798 L 19.6523,4.73099 L 20.5783,4.73099
 L 20.5783,4.26799 L 18.1293,4.26799 z
M 18.1293,-6.96899 L 19.0533,-6.96899 L 19.0533,-4.552 L 19.6523,-4.552 L 19.6523,-6.96899 L 20.5783,-6.96899
 L 20.5783,-7.43199 L 18.1293,-7.43199 z
M 18.1338,3.24799 L 18.7338,3.24799 L 18.7338,2.15997 L 19.4357,2.15997 L 20.1008,3.24799 L 20.7747,3.24799
 L 20.0007,2.04398 L 20.0716,2.02414 L 20.1387,1.9996 L 20.202,1.97038 L 20.2615,1.93648 L 20.3172,1.89789
 L 20.3692,1.8546 L 20.4174,1.80666 L 20.4617,1.754 L 20.5018,1.69746 L 20.5366,1.63837 L 20.5659,1.57671
 L 20.59,1.5125 L 20.6087,1.44571 L 20.6221,1.37637 L 20.6301,1.30446 L 20.6328,1.23 L 20.6284,1.12878
 L 20.6153,1.03368 L 20.5935,0.944672 L 20.563,0.86174 L 20.5238,0.784912 L 20.4758,0.714188 L 20.4191,0.649536
 L 20.3537,0.590988 L 20.2806,0.538727 L 20.2001,0.493423 L 20.1124,0.455109 L 20.0173,0.423737 L 19.9148,0.399353
 L 19.8051,0.381927 L 19.6881,0.371475 L 19.5638,0.367996 L 18.1338,0.367996 z
M 18.7338,1.69499 L 18.7338,0.832993 L 19.5007,0.832993 L 19.6245,0.839569 L 19.7318,0.859299 L 19.8225,0.892197
 L 19.8967,0.938248 L 19.9545,0.997452 L 19.9958,1.06981 L 20.0205,1.15532 L 20.0287,1.254 L 20.0267,1.30479
 L 20.0206,1.35268 L 20.0105,1.39766 L 19.9962,1.43974 L 19.978,1.47891 L 19.9556,1.51518 L 19.9292,1.54854
 L 19.8988,1.57899 L 19.8643,1.60619 L 19.8261,1.62975 L 19.7841,1.64967 L 19.7383,1.666 L 19.6886,1.67868
 L 19.6351,1.68774 L 19.5779,1.69318 L 19.5168,1.69499 z
" stroke="black" fill="lightgray" stroke-width="0.5"/>
</svg>
