<?xml version="1.0" standalone="no"?>
<!DOCTYPE svg PUBLIC "-//W3C//DTD SVG 1.1//EN" "http://www.w3.org/Graphics/SVG/1.1/DTD/svg11.dtd">
<svg width="55mm" height="73mm" viewBox="-2 -71 55 73" xmlns="http://www.w3.org/2000/svg" version="1.1">
<title>OpenSCAD Model</title>
<path d="
M 49.3135,1.99329 L 49.5261,1.97318 L 49.7371,1.93977 L 49.9455,1.89317 L 50.1507,1.83359 L 50.3516,1.76123
 L 50.5476,1.67641 L 50.738,1.57944 L 50.9218,1.4707 L 51.0985,1.35065 L 51.2672,1.21974 L 51.4275,1.07849
 L 51.5785,0.927444 L 51.7197,0.767227 L 51.8506,0.598465 L 51.9707,0.421799 L 52.0794,0.237961 L 52.1764,0.0476379
 L 52.2612,-0.148376 L 52.3336,-0.349335 L 52.3932,-0.554443 L 52.4398,-0.762894 L 52.4732,-0.973862 L 52.4933,-1.18651
 L 52.5,-1.39999 L 52.5,-67.4 L 52.4933,-67.6135 L 52.4732,-67.8261 L 52.4398,-68.0371 L 52.3932,-68.2455
 L 52.3336,-68.4507 L 52.2612,-68.6516 L 52.1764,-68.8476 L 52.0794,-69.038 L 51.9707,-69.2218 L 51.8506,-69.3985
 L 51.7197,-69.5672 L 51.5785,-69.7275 L 51.4275,-69.8785 L 51.2672,-70.0197 L 51.0985,-70.1507 L 50.9218,-70.2707
 L 50.738,-70.3794 L 50.5476,-70.4764 L 50.3516,-70.5612 L 50.1507,-70.6336 L 49.9455,-70.6932 L 49.7371,-70.7398
 L 49.5261,-70.7732 L 49.3135,-70.7933 L 49.1,-70.8 L 1.39999,-70.8 L 1.18651,-70.7933 L 0.973862,-70.7732
 L 0.762894,-70.7398 L 0.554443,-70.6932 L 0.349335,-70.6336 L 0.148376,-70.5612 L -0.0476379,-70.4764 L -0.237961,-70.3794
 L -0.421799,-70.2707 L -0.598465,-70.1507 L -0.767227,-70.0197 L -0.927444,-69.8785 L -1.07849,-69.7275 L -1.21974,-69.5672
 L -1.35065,-69.3985 L -1.4707,-69.2218 L -1.57944,-69.038 L -1.67641,-68.8476 L -1.76123,-68.6516 L -1.83359,-68.4507
 L -1.89317,-68.2455 L -1.93977,-68.0371 L -1.97318,-67.8261 L -1.99329,-67.6135 L -1.99998,-67.4 L -1.99998,-1.39999
 L -1.99329,-1.18651 L -1.97318,-0.973862 L -1.93977,-0.762894 L -1.89317,-0.554443 L -1.83359,-0.349335 L -1.76123,-0.148376
 L -1.67641,0.0476379 L -1.57944,0.237961 L -1.4707,0.421799 L -1.35065,0.598465 L -1.21974,0.767227 L -1.07849,0.927444
 L -0.927444,1.07849 L -0.767227,1.21974 L -0.598465,1.35065 L -0.421799,1.4707 L -0.237961,1.57944 L -0.0476379,1.67641
 L 0.148376,1.76123 L 0.349335,1.83359 L 0.554443,1.89317 L 0.762894,1.93977 L 0.973862,1.97318 L 1.18651,1.99329
 L 1.39999,1.99998 L 49.1,1.99998 z
M 3.18719,-64.552 L 3.12466,-64.5579 L 3.06261,-64.5677 L 3.0013,-64.5814 L 2.94098,-64.5989 L 2.88187,-64.6202
 L 2.82422,-64.6452 L 2.76823,-64.6737 L 2.71417,-64.7057 L 2.6622,-64.741 L 2.61256,-64.7795 L 2.56544,-64.821
 L 2.52103,-64.8654 L 2.47948,-64.9126 L 2.44098,-64.9622 L 2.40567,-65.0142 L 2.37369,-65.0682 L 2.34517,-65.1242
 L 2.32022,-65.1819 L 2.29893,-65.241 L 2.2814,-65.3013 L 2.2677,-65.3626 L 2.25787,-65.4247 L 2.25197,-65.4872
 L 2.25,-65.55 L 2.25197,-65.6128 L 2.25787,-65.6753 L 2.2677,-65.7374 L 2.2814,-65.7987 L 2.29893,-65.859
 L 2.32022,-65.9181 L 2.34517,-65.9758 L 2.37369,-66.0318 L 2.40567,-66.0858 L 2.44098,-66.1378 L 2.47948,-66.1874
 L 2.52103,-66.2345 L 2.56544,-66.279 L 2.61256,-66.3205 L 2.6622,-66.359 L 2.71417,-66.3943 L 2.76823,-66.4263
 L 2.82422,-66.4548 L 2.88187,-66.4798 L 2.94098,-66.5011 L 3.0013,-66.5186 L 3.06261,-66.5323 L 3.12466,-66.5421
 L 3.18719,-66.548 L 3.25,-66.55 L 3.31279,-66.548 L 3.37532,-66.5421 L 3.43738,-66.5323 L 3.49869,-66.5186
 L 3.55901,-66.5011 L 3.61812,-66.4798 L 3.67577,-66.4548 L 3.73175,-66.4263 L 3.78581,-66.3943 L 3.83778,-66.359
 L 3.88742,-66.3205 L 3.93454,-66.279 L 3.97896,-66.2345 L 4.02051,-66.1874 L 4.05901,-66.1378 L 4.09431,-66.0858
 L 4.1263,-66.0318 L 4.15482,-65.9758 L 4.17976,-65.9181 L 4.20105,-65.859 L 4.21858,-65.7987 L 4.23228,-65.7374
 L 4.24211,-65.6753 L 4.24802,-65.6128 L 4.25,-65.55 L 4.24802,-65.4872 L 4.24211,-65.4247 L 4.23228,-65.3626
 L 4.21858,-65.3013 L 4.20105,-65.241 L 4.17976,-65.1819 L 4.15482,-65.1242 L 4.1263,-65.0682 L 4.09431,-65.0142
 L 4.05901,-64.9622 L 4.02051,-64.9126 L 3.97896,-64.8654 L 3.93454,-64.821 L 3.88742,-64.7795 L 3.83778,-64.741
 L 3.78581,-64.7057 L 3.73175,-64.6737 L 3.67577,-64.6452 L 3.61812,-64.6202 L 3.55901,-64.5989 L 3.49869,-64.5814
 L 3.43738,-64.5677 L 3.37532,-64.5579 L 3.31279,-64.552 L 3.25,-64.55 z
M 47.1872,-64.552 L 47.1247,-64.5579 L 47.0626,-64.5677 L 47.0013,-64.5814 L 46.941,-64.5989 L 46.8819,-64.6202
 L 46.8242,-64.6452 L 46.7682,-64.6737 L 46.7142,-64.7057 L 46.6622,-64.741 L 46.6126,-64.7795 L 46.5654,-64.821
 L 46.521,-64.8654 L 46.4795,-64.9126 L 46.441,-64.9622 L 46.4057,-65.0142 L 46.3737,-65.0682 L 46.3452,-65.1242
 L 46.3202,-65.1819 L 46.2989,-65.241 L 46.2814,-65.3013 L 46.2677,-65.3626 L 46.2579,-65.4247 L 46.252,-65.4872
 L 46.25,-65.55 L 46.252,-65.6128 L 46.2579,-65.6753 L 46.2677,-65.7374 L 46.2814,-65.7987 L 46.2989,-65.859
 L 46.3202,-65.9181 L 46.3452,-65.9758 L 46.3737,-66.0318 L 46.4057,-66.0858 L 46.441,-66.1378 L 46.4795,-66.1874
 L 46.521,-66.2345 L 46.5654,-66.279 L 46.6126,-66.3205 L 46.6622,-66.359 L 46.7142,-66.3943 L 46.7682,-66.4263
 L 46.8242,-66.4548 L 46.8819,-66.4798 L 46.941,-66.5011 L 47.0013,-66.5186 L 47.0626,-66.5323 L 47.1247,-66.5421
 L 47.1872,-66.548 L 47.25,-66.55 L 47.3128,-66.548 L 47.3753,-66.5421 L 47.4374,-66.5323 L 47.4987,-66.5186
 L 47.559,-66.5011 L 47.6181,-66.4798 L 47.6758,-66.4548 L 47.7318,-66.4263 L 47.7858,-66.3943 L 47.8378,-66.359
 L 47.8874,-66.3205 L 47.9345,-66.279 L 47.979,-66.2345 L 48.0205,-66.1874 L 48.059,-66.1378 L 48.0943,-66.0858
 L 48.1263,-66.0318 L 48.1548,-65.9758 L 48.1798,-65.9181 L 48.201,-65.859 L 48.2186,-65.7987 L 48.2323,-65.7374
 L 48.2421,-65.6753 L 48.248,-65.6128 L 48.25,-65.55 L 48.248,-65.4872 L 48.2421,-65.4247 L 48.2323,-65.3626
 L 48.2186,-65.3013 L 48.201,-65.241 L 48.1798,-65.1819 L 48.1548,-65.1242 L 48.1263,-65.0682 L 48.0943,-65.0142
 L 48.059,-64.9622 L 48.0205,-64.9126 L 47.979,-64.8654 L 47.9345,-64.821 L 47.8874,-64.7795 L 47.8378,-64.741
 L 47.7858,-64.7057 L 47.7318,-64.6737 L 47.6758,-64.6452 L 47.6181,-64.6202 L 47.559,-64.5989 L 47.4987,-64.5814
 L 47.4374,-64.5677 L 47.3753,-64.5579 L 47.3128,-64.552 L 47.25,-64.55 z
M 17.687,-14.8035 L 17.5744,-14.8142 L 17.4627,-14.8319 L 17.3524,-14.8565 L 17.2438,-14.8881 L 17.1374,-14.9264
 L 17.0336,-14.9713 L 16.9328,-15.0226 L 16.8355,-15.0802 L 16.742,-15.1438 L 16.6526,-15.2131 L 16.5678,-15.2878
 L 16.4879,-15.3678 L 16.4131,-15.4526 L 16.3438,-15.542 L 16.2802,-15.6355 L 16.2226,-15.7328 L 16.1713,-15.8336
 L 16.1264,-15.9374 L 16.0881,-16.0438 L 16.0565,-16.1524 L 16.0319,-16.2627 L 16.0142,-16.3744 L 16.0035,-16.487
 L 16,-16.6 L 16,-58 L 16.0035,-58.113 L 16.0142,-58.2256 L 16.0319,-58.3373 L 16.0565,-58.4476
 L 16.0881,-58.5562 L 16.1264,-58.6626 L 16.1713,-58.7664 L 16.2226,-58.8672 L 16.2802,-58.9645 L 16.3438,-59.058
 L 16.4131,-59.1474 L 16.4879,-59.2322 L 16.5678,-59.3121 L 16.6526,-59.3869 L 16.742,-59.4562 L 16.8355,-59.5198
 L 16.9328,-59.5773 L 17.0336,-59.6287 L 17.1374,-59.6736 L 17.2438,-59.7119 L 17.3524,-59.7434 L 17.4627,-59.7681
 L 17.5744,-59.7858 L 17.687,-59.7964 L 17.8,-59.8 L 17.913,-59.7964 L 18.0256,-59.7858 L 18.1373,-59.7681
 L 18.2476,-59.7434 L 18.3562,-59.7119 L 18.4626,-59.6736 L 18.5664,-59.6287 L 18.6671,-59.5773 L 18.7645,-59.5198
 L 18.858,-59.4562 L 18.9474,-59.3869 L 19.0322,-59.3121 L 19.1121,-59.2322 L 19.1869,-59.1474 L 19.2562,-59.058
 L 19.3198,-58.9645 L 19.3773,-58.8672 L 19.4287,-58.7664 L 19.4736,-58.6626 L 19.5119,-58.5562 L 19.5434,-58.4476
 L 19.5681,-58.3373 L 19.5858,-58.2256 L 19.5964,-58.113 L 19.6,-58 L 19.6,-16.6 L 19.5964,-16.487
 L 19.5858,-16.3744 L 19.5681,-16.2627 L 19.5434,-16.1524 L 19.5119,-16.0438 L 19.4736,-15.9374 L 19.4287,-15.8336
 L 19.3773,-15.7328 L 19.3198,-15.6355 L 19.2562,-15.542 L 19.1869,-15.4526 L 19.1121,-15.3678 L 19.0322,-15.2878
 L 18.9474,-15.2131 L 18.858,-15.1438 L 18.7645,-15.0802 L 18.6671,-15.0226 L 18.5664,-14.9713 L 18.4626,-14.9264
 L 18.3562,-14.8881 L 18.2476,-14.8565 L 18.1373,-14.8319 L 18.0256,-14.8142 L 17.913,-14.8035 L 17.8,-14.8
 z
M 31.1,-17.1 L 31.1,-27.1 L 28.85,-27.1 L 28.85,-36 L 26,-36 L 26,-58.5
 L 33.85,-58.5 L 33.85,-17.1 z
M 3.18719,-2.25197 L 3.12466,-2.25787 L 3.06261,-2.2677 L 3.0013,-2.2814 L 2.94098,-2.29893 L 2.88187,-2.32022
 L 2.82422,-2.34517 L 2.76823,-2.37369 L 2.71417,-2.40567 L 2.6622,-2.44098 L 2.61256,-2.47948 L 2.56544,-2.52103
 L 2.52103,-2.56544 L 2.47948,-2.61256 L 2.44098,-2.6622 L 2.40567,-2.71417 L 2.37369,-2.76823 L 2.34517,-2.82422
 L 2.32022,-2.88187 L 2.29893,-2.94098 L 2.2814,-3.0013 L 2.2677,-3.06261 L 2.25787,-3.12466 L 2.25197,-3.18719
 L 2.25,-3.25 L 2.25197,-3.31279 L 2.25787,-3.37532 L 2.2677,-3.43738 L 2.2814,-3.49869 L 2.29893,-3.55901
 L 2.32022,-3.61812 L 2.34517,-3.67577 L 2.37369,-3.73175 L 2.40567,-3.78581 L 2.44098,-3.83778 L 2.47948,-3.88742
 L 2.52103,-3.93454 L 2.56544,-3.97896 L 2.61256,-4.02051 L 2.6622,-4.05901 L 2.71417,-4.09431 L 2.76823,-4.1263
 L 2.82422,-4.15482 L 2.88187,-4.17976 L 2.94098,-4.20105 L 3.0013,-4.21858 L 3.06261,-4.23228 L 3.12466,-4.24211
 L 3.18719,-4.24802 L 3.25,-4.25 L 3.31279,-4.24802 L 3.37532,-4.24211 L 3.43738,-4.23228 L 3.49869,-4.21858
 L 3.55901,-4.20105 L 3.61812,-4.17976 L 3.67577,-4.15482 L 3.73175,-4.1263 L 3.78581,-4.09431 L 3.83778,-4.05901
 L 3.88742,-4.02051 L 3.93454,-3.97896 L 3.97896,-3.93454 L 4.02051,-3.88742 L 4.05901,-3.83778 L 4.09431,-3.78581
 L 4.1263,-3.73175 L 4.15482,-3.67577 L 4.17976,-3.61812 L 4.20105,-3.55901 L 4.21858,-3.49869 L 4.23228,-3.43738
 L 4.24211,-3.37532 L 4.24802,-3.31279 L 4.25,-3.25 L 4.24802,-3.18719 L 4.24211,-3.12466 L 4.23228,-3.06261
 L 4.21858,-3.0013 L 4.20105,-2.94098 L 4.17976,-2.88187 L 4.15482,-2.82422 L 4.1263,-2.76823 L 4.09431,-2.71417
 L 4.05901,-2.6622 L 4.02051,-2.61256 L 3.97896,-2.56544 L 3.93454,-2.52103 L 3.88742,-2.47948 L 3.83778,-2.44098
 L 3.78581,-2.40567 L 3.73175,-2.37369 L 3.67577,-2.34517 L 3.61812,-2.32022 L 3.55901,-2.29893 L 3.49869,-2.2814
 L 3.43738,-2.2677 L 3.37532,-2.25787 L 3.31279,-2.25197 L 3.25,-2.25 z
M 47.1872,-2.25197 L 47.1247,-2.25787 L 47.0626,-2.2677 L 47.0013,-2.2814 L 46.941,-2.29893 L 46.8819,-2.32022
 L 46.8242,-2.34517 L 46.7682,-2.37369 L 46.7142,-2.40567 L 46.6622,-2.44098 L 46.6126,-2.47948 L 46.5654,-2.52103
 L 46.521,-2.56544 L 46.4795,-2.61256 L 46.441,-2.6622 L 46.4057,-2.71417 L 46.3737,-2.76823 L 46.3452,-2.82422
 L 46.3202,-2.88187 L 46.2989,-2.94098 L 46.2814,-3.0013 L 46.2677,-3.06261 L 46.2579,-3.12466 L 46.252,-3.18719
 L 46.25,-3.25 L 46.252,-3.31279 L 46.2579,-3.37532 L 46.2677,-3.43738 L 46.2814,-3.49869 L 46.2989,-3.55901
 L 46.3202,-3.61812 L 46.3452,-3.67577 L 46.3737,-3.73175 L 46.4057,-3.78581 L 46.441,-3.83778 L 46.4795,-3.88742
 L 46.521,-3.93454 L 46.5654,-3.97896 L 46.6126,-4.02051 L 46.6622,-4.05901 L 46.7142,-4.09431 L 46.7682,-4.1263
 L 46.8242,-4.15482 L 46.8819,-4.17976 L 46.941,-4.20105 L 47.0013,-4.21858 L 47.0626,-4.23228 L 47.1247,-4.24211
 L 47.1872,-4.24802 L 47.25,-4.25 L 47.3128,-4.24802 L 47.3753,-4.24211 L 47.4374,-4.23228 L 47.4987,-4.21858
 L 47.559,-4.20105 L 47.6181,-4.17976 L 47.6758,-4.15482 L 47.7318,-4.1263 L 47.7858,-4.09431 L 47.8378,-4.05901
 L 47.8874,-4.02051 L 47.9345,-3.97896 L 47.979,-3.93454 L 48.0205,-3.88742 L 48.059,-3.83778 L 48.0943,-3.78581
 L 48.1263,-3.73175 L 48.1548,-3.67577 L 48.1798,-3.61812 L 48.201,-3.55901 L 48.2186,-3.49869 L 48.2323,-3.43738
 L 48.2421,-3.37532 L 48.248,-3.31279 L 48.25,-3.25 L 48.248,-3.18719 L 48.2421,-3.12466 L 48.2323,-3.06261
 L 48.2186,-3.0013 L 48.201,-2.94098 L 48.1798,-2.88187 L 48.1548,-2.82422 L 48.1263,-2.76823 L 48.0943,-2.71417
 L 48.059,-2.6622 L 48.0205,-2.61256 L 47.979,-2.56544 L 47.9345,-2.52103 L 47.8874,-2.47948 L 47.8378,-2.44098
 L 47.7858,-2.40567 L 47.7318,-2.37369 L 47.6758,-2.34517 L 47.6181,-2.32022 L 47.559,-2.29893 L 47.4987,-2.2814
 L 47.4374,-2.2677 L 47.3753,-2.25787 L 47.3128,-2.25197 L 47.25,-2.25 z
" stroke="black" fill="lightgray" stroke-width="0.5"/>
</svg>
