<?xml version="1.0" standalone="no"?>
<!DOCTYPE svg PUBLIC "-//W3C//DTD SVG 1.1//EN" "http://www.w3.org/Graphics/SVG/1.1/DTD/svg11.dtd">
<svg width="52mm" height="20mm" viewBox="192 -14 52 20" xmlns="http://www.w3.org/2000/svg" version="1.1">
<title>OpenSCAD Model</title>
<path d="
M 200,-0 L 203.2,-0 L 203.2,6 L 232.8,6 L 232.8,-0 L 236,-0
 L 236,6 L 244,6 L 244,-14 L 192,-14 L 192,6 L 200,6
 z
M 217.974,-5.50021 L 217.948,-5.5009 L 217.921,-5.50204 L 217.895,-5.50365 L 217.869,-5.50571 L 217.843,-5.50821
 L 217.817,-5.51117 L 217.791,-5.51459 L 217.765,-5.51846 L 217.74,-5.52278 L 217.714,-5.52756 L 217.688,-5.53278
 L 217.663,-5.53844 L 217.637,-5.54456 L 217.612,-5.5511 L 217.587,-5.55811 L 217.561,-5.56554 L 217.536,-5.57341
 L 217.512,-5.58171 L 217.487,-5.59045 L 217.462,-5.59962 L 217.438,-5.60922 L 217.414,-5.61923 L 217.39,-5.62967
 L 217.366,-5.64053 L 217.342,-5.65179 L 217.319,-5.66348 L 217.296,-5.67557 L 217.273,-5.68806 L 217.25,-5.70096
 L 217.227,-5.71425 L 217.205,-5.72792 L 217.183,-5.74199 L 217.161,-5.75644 L 217.14,-5.77127 L 217.118,-5.78647
 L 217.097,-5.80203 L 217.077,-5.81798 L 217.056,-5.83427 L 217.036,-5.85092 L 217.016,-5.86794 L 216.996,-5.88527
 L 216.977,-5.90297 L 216.958,-5.92099 L 216.939,-5.93933 L 216.921,-5.95801 L 216.903,-5.97699 L 216.885,-5.99629
 L 216.868,-6.0159 L 216.851,-6.03581 L 216.834,-6.05602 L 216.818,-6.07651 L 216.802,-6.09727 L 216.786,-6.11832
 L 216.771,-6.13963 L 216.756,-6.16121 L 216.742,-6.18303 L 216.728,-6.20511 L 216.714,-6.22743 L 216.701,-6.25
 L 216.688,-6.27278 L 216.676,-6.29579 L 216.663,-6.319 L 216.652,-6.34244 L 216.641,-6.36606 L 216.63,-6.38989
 L 216.619,-6.41389 L 216.609,-6.43808 L 216.6,-6.46243 L 216.59,-6.48697 L 216.582,-6.51164 L 216.573,-6.53647
 L 216.566,-6.56143 L 216.558,-6.58653 L 216.551,-6.61177 L 216.545,-6.63712 L 216.538,-6.66257 L 216.533,-6.68813
 L 216.528,-6.71378 L 216.523,-6.73952 L 216.518,-6.76534 L 216.515,-6.79123 L 216.511,-6.81718 L 216.508,-6.8432
 L 216.506,-6.86926 L 216.504,-6.89536 L 216.502,-6.92149 L 216.501,-6.94765 L 216.5,-6.97382 L 216.5,-7
 L 216.5,-7.02617 L 216.501,-7.05234 L 216.502,-7.07849 L 216.504,-7.10463 L 216.506,-7.13072 L 216.508,-7.15678
 L 216.511,-7.1828 L 216.515,-7.20876 L 216.518,-7.23465 L 216.523,-7.26047 L 216.528,-7.28621 L 216.533,-7.31186
 L 216.538,-7.33742 L 216.545,-7.36287 L 216.551,-7.38821 L 216.558,-7.41345 L 216.566,-7.43855 L 216.573,-7.46352
 L 216.582,-7.48834 L 216.59,-7.51302 L 216.6,-7.53755 L 216.609,-7.5619 L 216.619,-7.58609 L 216.63,-7.61009
 L 216.641,-7.63393 L 216.652,-7.65755 L 216.663,-7.68098 L 216.676,-7.70419 L 216.688,-7.7272 L 216.701,-7.75
 L 216.714,-7.77255 L 216.728,-7.79488 L 216.742,-7.81696 L 216.756,-7.83878 L 216.771,-7.86035 L 216.786,-7.88167
 L 216.802,-7.90271 L 216.818,-7.92348 L 216.834,-7.94397 L 216.851,-7.96417 L 216.868,-7.98409 L 216.885,-8.00369
 L 216.903,-8.02299 L 216.921,-8.04198 L 216.939,-8.06065 L 216.958,-8.07899 L 216.977,-8.09702 L 216.996,-8.11472
 L 217.016,-8.13205 L 217.036,-8.14906 L 217.056,-8.16571 L 217.077,-8.18201 L 217.097,-8.19795 L 217.118,-8.21352
 L 217.14,-8.22871 L 217.161,-8.24355 L 217.183,-8.258 L 217.205,-8.27206 L 217.227,-8.28574 L 217.25,-8.29903
 L 217.273,-8.31192 L 217.296,-8.32442 L 217.319,-8.3365 L 217.342,-8.34819 L 217.366,-8.35945 L 217.39,-8.37032
 L 217.414,-8.38075 L 217.438,-8.39076 L 217.462,-8.40036 L 217.487,-8.40953 L 217.512,-8.41827 L 217.536,-8.42657
 L 217.561,-8.43445 L 217.587,-8.44188 L 217.612,-8.44888 L 217.637,-8.45543 L 217.663,-8.46155 L 217.688,-8.46721
 L 217.714,-8.47243 L 217.74,-8.4772 L 217.765,-8.48152 L 217.791,-8.4854 L 217.817,-8.48882 L 217.843,-8.49178
 L 217.869,-8.49428 L 217.895,-8.49634 L 217.921,-8.49794 L 217.948,-8.49908 L 217.974,-8.49977 L 218,-8.5
 L 218.026,-8.49977 L 218.052,-8.49908 L 218.079,-8.49794 L 218.105,-8.49634 L 218.131,-8.49428 L 218.157,-8.49178
 L 218.183,-8.48882 L 218.209,-8.4854 L 218.235,-8.48152 L 218.26,-8.4772 L 218.286,-8.47243 L 218.312,-8.46721
 L 218.337,-8.46155 L 218.363,-8.45543 L 218.388,-8.44888 L 218.413,-8.44188 L 218.439,-8.43445 L 218.464,-8.42657
 L 218.488,-8.41827 L 218.513,-8.40953 L 218.538,-8.40036 L 218.562,-8.39076 L 218.586,-8.38075 L 218.61,-8.37032
 L 218.634,-8.35945 L 218.658,-8.34819 L 218.681,-8.3365 L 218.704,-8.32442 L 218.727,-8.31192 L 218.75,-8.29903
 L 218.773,-8.28574 L 218.795,-8.27206 L 218.817,-8.258 L 218.839,-8.24355 L 218.86,-8.22871 L 218.882,-8.21352
 L 218.903,-8.19795 L 218.923,-8.18201 L 218.944,-8.16571 L 218.964,-8.14906 L 218.984,-8.13205 L 219.004,-8.11472
 L 219.023,-8.09702 L 219.042,-8.07899 L 219.061,-8.06065 L 219.079,-8.04198 L 219.097,-8.02299 L 219.115,-8.00369
 L 219.132,-7.98409 L 219.149,-7.96417 L 219.166,-7.94397 L 219.182,-7.92348 L 219.198,-7.90271 L 219.214,-7.88167
 L 219.229,-7.86035 L 219.244,-7.83878 L 219.258,-7.81696 L 219.272,-7.79488 L 219.286,-7.77255 L 219.299,-7.75
 L 219.312,-7.7272 L 219.324,-7.70419 L 219.337,-7.68098 L 219.348,-7.65755 L 219.359,-7.63393 L 219.37,-7.61009
 L 219.381,-7.58609 L 219.391,-7.5619 L 219.4,-7.53755 L 219.41,-7.51302 L 219.418,-7.48834 L 219.427,-7.46352
 L 219.434,-7.43855 L 219.442,-7.41345 L 219.449,-7.38821 L 219.455,-7.36287 L 219.462,-7.33742 L 219.467,-7.31186
 L 219.472,-7.28621 L 219.477,-7.26047 L 219.482,-7.23465 L 219.485,-7.20876 L 219.489,-7.1828 L 219.492,-7.15678
 L 219.494,-7.13072 L 219.496,-7.10463 L 219.498,-7.07849 L 219.499,-7.05234 L 219.5,-7.02617 L 219.5,-7
 L 219.5,-6.97382 L 219.499,-6.94765 L 219.498,-6.92149 L 219.496,-6.89536 L 219.494,-6.86926 L 219.492,-6.8432
 L 219.489,-6.81718 L 219.485,-6.79123 L 219.482,-6.76534 L 219.477,-6.73952 L 219.472,-6.71378 L 219.467,-6.68813
 L 219.462,-6.66257 L 219.455,-6.63712 L 219.449,-6.61177 L 219.442,-6.58653 L 219.434,-6.56143 L 219.427,-6.53647
 L 219.418,-6.51164 L 219.41,-6.48697 L 219.4,-6.46243 L 219.391,-6.43808 L 219.381,-6.41389 L 219.37,-6.38989
 L 219.359,-6.36606 L 219.348,-6.34244 L 219.337,-6.319 L 219.324,-6.29579 L 219.312,-6.27278 L 219.299,-6.25
 L 219.286,-6.22743 L 219.272,-6.20511 L 219.258,-6.18303 L 219.244,-6.16121 L 219.229,-6.13963 L 219.214,-6.11832
 L 219.198,-6.09727 L 219.182,-6.07651 L 219.166,-6.05602 L 219.149,-6.03581 L 219.132,-6.0159 L 219.115,-5.99629
 L 219.097,-5.97699 L 219.079,-5.95801 L 219.061,-5.93933 L 219.042,-5.92099 L 219.023,-5.90297 L 219.004,-5.88527
 L 218.984,-5.86794 L 218.964,-5.85092 L 218.944,-5.83427 L 218.923,-5.81798 L 218.903,-5.80203 L 218.882,-5.78647
 L 218.86,-5.77127 L 218.839,-5.75644 L 218.817,-5.74199 L 218.795,-5.72792 L 218.773,-5.71425 L 218.75,-5.70096
 L 218.727,-5.68806 L 218.704,-5.67557 L 218.681,-5.66348 L 218.658,-5.65179 L 218.634,-5.64053 L 218.61,-5.62967
 L 218.586,-5.61923 L 218.562,-5.60922 L 218.538,-5.59962 L 218.513,-5.59045 L 218.488,-5.58171 L 218.464,-5.57341
 L 218.439,-5.56554 L 218.413,-5.55811 L 218.388,-5.5511 L 218.363,-5.54456 L 218.337,-5.53844 L 218.312,-5.53278
 L 218.286,-5.52756 L 218.26,-5.52278 L 218.235,-5.51846 L 218.209,-5.51459 L 218.183,-5.51117 L 218.157,-5.50821
 L 218.131,-5.50571 L 218.105,-5.50365 L 218.079,-5.50204 L 218.052,-5.5009 L 218.026,-5.50021 L 218,-5.5
 z
" stroke="black" fill="lightgray" stroke-width="0.5"/>
</svg>
